<?xml version="1.0" encoding="UTF-8" standalone="no"?>
<!-- Created with Inkscape (http://www.inkscape.org/) -->

<svg
   width="50.800003mm"
   height="51.530472mm"
   viewBox="0 0 50.800003 51.530472"
   version="1.1"
   id="svg5"
   xml:space="preserve"
   xmlns:xlink="http://www.w3.org/1999/xlink"
   xmlns="http://www.w3.org/2000/svg"
   xmlns:svg="http://www.w3.org/2000/svg"><defs
     id="defs2"><rect
       x="533.95398"
       y="261.62952"
       width="38.537319"
       height="15.026019"
       id="rect12439" /><linearGradient
       id="linearGradient8840"><stop
         style="stop-color:#9aabc5;stop-opacity:1;"
         offset="0.18265532"
         id="stop8836" /><stop
         style="stop-color:#fbfbfb;stop-opacity:1;"
         offset="0.53320408"
         id="stop8838" /></linearGradient><linearGradient
       id="linearGradient6349"><stop
         style="stop-color:#dcdcdc;stop-opacity:1;"
         offset="0"
         id="stop6347" /><stop
         style="stop-color:#3d3d3d;stop-opacity:1;"
         offset="1"
         id="stop6345" /></linearGradient><linearGradient
       id="linearGradient4581"><stop
         style="stop-color:#dbf1fc;stop-opacity:1;"
         offset="0.14829659"
         id="stop4577" /><stop
         style="stop-color:#79d1fc;stop-opacity:1;"
         offset="1"
         id="stop4579" /></linearGradient><linearGradient
       id="linearGradient4575"><stop
         style="stop-color:#0d2de0;stop-opacity:1;"
         offset="0"
         id="stop4571" /><stop
         style="stop-color:#b6cef7;stop-opacity:1;"
         offset="1"
         id="stop4573" /></linearGradient><linearGradient
       id="linearGradient4569"><stop
         style="stop-color:#0d2de0;stop-opacity:1;"
         offset="0"
         id="stop4565" /><stop
         style="stop-color:#b6cef7;stop-opacity:1;"
         offset="1"
         id="stop4567" /></linearGradient><linearGradient
       id="linearGradient4110"><stop
         style="stop-color:#3d3d3d;stop-opacity:1;"
         offset="0"
         id="stop4106" /><stop
         style="stop-color:#dcdcdc;stop-opacity:1;"
         offset="1"
         id="stop4108" /></linearGradient><linearGradient
       id="linearGradient1684"><stop
         style="stop-color:#dbf1fc;stop-opacity:1;"
         offset="0.34957626"
         id="stop1680" /><stop
         style="stop-color:#79d1fc;stop-opacity:1;"
         offset="1"
         id="stop1682" /></linearGradient><linearGradient
       id="linearGradient1408"><stop
         style="stop-color:#fbfbfb;stop-opacity:1;"
         offset="0.13559322"
         id="stop1404" /><stop
         style="stop-color:#a7b7bd;stop-opacity:1;"
         offset="1"
         id="stop1406" /></linearGradient><linearGradient
       id="linearGradient6842"><stop
         style="stop-color:#fbfbfb;stop-opacity:1;"
         offset="0"
         id="stop6840" /><stop
         style="stop-color:#a7b7bd;stop-opacity:1;"
         offset="0.67134267"
         id="stop6838" /></linearGradient><linearGradient
       id="linearGradient6735"><stop
         style="stop-color:#a7b7bd;stop-opacity:1;"
         offset="0.43913227"
         id="stop6733" /><stop
         style="stop-color:#fbfbfb;stop-opacity:1;"
         offset="1"
         id="stop6731" /></linearGradient><linearGradient
       id="linearGradient6700"><stop
         style="stop-color:#f0c237;stop-opacity:1;"
         offset="0"
         id="stop6696" /><stop
         style="stop-color:#fb7c01;stop-opacity:1;"
         offset="0.74344546"
         id="stop6706" /><stop
         style="stop-color:#f04301;stop-opacity:1;"
         offset="1"
         id="stop6698" /></linearGradient><linearGradient
       id="linearGradient6581"><stop
         style="stop-color:#7b7b7b;stop-opacity:1;"
         offset="0"
         id="stop6577" /><stop
         style="stop-color:#ededed;stop-opacity:1;"
         offset="0.41048118"
         id="stop6579" /></linearGradient><linearGradient
       id="linearGradient6408"><stop
         style="stop-color:#8f8f8f;stop-opacity:1;"
         offset="0"
         id="stop6406" /><stop
         style="stop-color:#141414;stop-opacity:1;"
         offset="0.87131578"
         id="stop6404" /></linearGradient><linearGradient
       id="linearGradient6300"><stop
         style="stop-color:#b6cef7;stop-opacity:1;"
         offset="0"
         id="stop6298" /><stop
         style="stop-color:#0d2de0;stop-opacity:1;"
         offset="1"
         id="stop6296" /></linearGradient><linearGradient
       id="linearGradient6292"><stop
         style="stop-color:#79d1fc;stop-opacity:1;"
         offset="0"
         id="stop6290" /><stop
         style="stop-color:#dbf1fc;stop-opacity:1;"
         offset="1"
         id="stop6288" /></linearGradient><linearGradient
       id="linearGradient6284"><stop
         style="stop-color:#79d1fc;stop-opacity:1;"
         offset="0"
         id="stop6282" /><stop
         style="stop-color:#dbf1fc;stop-opacity:1;"
         offset="1"
         id="stop6280" /></linearGradient><linearGradient
       id="linearGradient6191"><stop
         style="stop-color:#79d1fc;stop-opacity:1;"
         offset="0"
         id="stop6189" /><stop
         style="stop-color:#dbf1fc;stop-opacity:1;"
         offset="1"
         id="stop6187" /></linearGradient><linearGradient
       id="linearGradient6183"><stop
         style="stop-color:#79d1fc;stop-opacity:1;"
         offset="0"
         id="stop6181" /><stop
         style="stop-color:#dbf1fc;stop-opacity:1;"
         offset="1"
         id="stop6179" /></linearGradient><linearGradient
       id="linearGradient6175"><stop
         style="stop-color:#79d1fc;stop-opacity:1;"
         offset="0"
         id="stop6173" /><stop
         style="stop-color:#dbf1fc;stop-opacity:1;"
         offset="1"
         id="stop6171" /></linearGradient><linearGradient
       id="linearGradient6051"><stop
         style="stop-color:#dbf1fc;stop-opacity:1;"
         offset="0"
         id="stop6049" /><stop
         style="stop-color:#79d1fc;stop-opacity:1;"
         offset="1"
         id="stop6047" /></linearGradient><linearGradient
       id="linearGradient1259"><stop
         style="stop-color:#0d2de0;stop-opacity:1;"
         offset="0"
         id="stop1255" /><stop
         style="stop-color:#b6cef7;stop-opacity:1;"
         offset="1"
         id="stop1257" /></linearGradient><linearGradient
       id="linearGradient1096"><stop
         style="stop-color:#b6cef7;stop-opacity:1;"
         offset="0"
         id="stop1094" /><stop
         style="stop-color:#0c40f5;stop-opacity:1;"
         offset="1"
         id="stop1092" /></linearGradient><linearGradient
       id="linearGradient1063"><stop
         style="stop-color:#036995;stop-opacity:1;"
         offset="0"
         id="stop1059" /><stop
         style="stop-color:#b5e9f4;stop-opacity:1;"
         offset="1"
         id="stop1061" /></linearGradient><linearGradient
       id="linearGradient1053"><stop
         style="stop-color:#0d2de0;stop-opacity:1;"
         offset="0"
         id="stop1049" /><stop
         style="stop-color:#177af9;stop-opacity:1;"
         offset="0.41947386"
         id="stop1057" /><stop
         style="stop-color:#a8bff8;stop-opacity:1;"
         offset="1"
         id="stop1051" /></linearGradient><linearGradient
       xlink:href="#linearGradient1053"
       id="linearGradient1055"
       x1="20.139919"
       y1="84.522377"
       x2="55.438244"
       y2="81.694069"
       gradientUnits="userSpaceOnUse"
       gradientTransform="matrix(0.04063885,0,0,0.04063885,140.19131,60.535675)" /><linearGradient
       xlink:href="#linearGradient1063"
       id="linearGradient1065"
       x1="23.058424"
       y1="119.42027"
       x2="55.686565"
       y2="111.94544"
       gradientUnits="userSpaceOnUse"
       gradientTransform="matrix(0.04063885,0,0,0.04063885,140.19131,60.535675)" /><linearGradient
       xlink:href="#linearGradient1096"
       id="linearGradient1098"
       x1="51.948521"
       y1="64.534554"
       x2="78.710182"
       y2="63.972019"
       gradientUnits="userSpaceOnUse"
       gradientTransform="matrix(0.04063885,0,0,0.04063885,140.19131,60.535675)" /><linearGradient
       xlink:href="#linearGradient1063"
       id="linearGradient1124"
       gradientUnits="userSpaceOnUse"
       x1="20.599741"
       y1="61.323097"
       x2="53.659031"
       y2="122.34975"
       gradientTransform="matrix(0.04063885,0,0,0.04063885,142.58859,60.551034)" /><linearGradient
       xlink:href="#linearGradient1063"
       id="linearGradient1160"
       gradientUnits="userSpaceOnUse"
       x1="-26.0935"
       y1="109.92633"
       x2="50.939594"
       y2="114.9123"
       gradientTransform="matrix(0.04063885,0,0,0.04063885,145.49105,56.1492)" /><linearGradient
       xlink:href="#linearGradient1063"
       id="linearGradient1174"
       gradientUnits="userSpaceOnUse"
       x1="19.299429"
       y1="119.42027"
       x2="55.686565"
       y2="111.94544"
       gradientTransform="matrix(0.04063885,0,0,0.04063885,143.75473,57.077534)" /><linearGradient
       xlink:href="#linearGradient1063"
       id="linearGradient1216"
       gradientUnits="userSpaceOnUse"
       x1="25.198519"
       y1="120.54391"
       x2="36.303837"
       y2="125.9909"
       gradientTransform="matrix(0.04063885,0,0,0.04063885,148.15571,58.246547)" /><linearGradient
       xlink:href="#linearGradient4575"
       id="linearGradient1252"
       gradientUnits="userSpaceOnUse"
       gradientTransform="matrix(0.04063885,0,0,0.04063885,142.80854,62.084398)"
       x1="15.607615"
       y1="92.275375"
       x2="62.38575"
       y2="119.89366" /><linearGradient
       xlink:href="#linearGradient4569"
       id="linearGradient1294"
       gradientUnits="userSpaceOnUse"
       gradientTransform="matrix(0.04063885,0,0,0.04063885,143.02499,59.627421)"
       x1="15.7392"
       y1="116.7501"
       x2="68.444054"
       y2="122.92281" /><linearGradient
       xlink:href="#linearGradient1259"
       id="linearGradient1308"
       gradientUnits="userSpaceOnUse"
       gradientTransform="matrix(0.04063885,0,0,0.04063885,145.46049,57.601852)"
       x1="-7.4384437"
       y1="84.754692"
       x2="60.093506"
       y2="101.5702" /><linearGradient
       xlink:href="#linearGradient6300"
       id="linearGradient1344"
       gradientUnits="userSpaceOnUse"
       gradientTransform="matrix(0.04063885,0,0,0.04063885,147.42579,62.376411)"
       x1="-9.1628132"
       y1="103.54841"
       x2="96.743996"
       y2="100.60742" /><linearGradient
       xlink:href="#linearGradient1684"
       id="linearGradient6053"
       x1="171.52512"
       y1="149.19493"
       x2="268.45178"
       y2="145.20238"
       gradientUnits="userSpaceOnUse"
       gradientTransform="matrix(0.04063885,0,0,0.04063885,140.19131,60.535675)" /><linearGradient
       xlink:href="#linearGradient6051"
       id="linearGradient6090"
       gradientUnits="userSpaceOnUse"
       x1="169.65405"
       y1="143.20752"
       x2="170.22086"
       y2="133.60178"
       gradientTransform="matrix(0.04063885,0,0,0.04063885,139.46874,56.126366)" /><linearGradient
       xlink:href="#linearGradient6183"
       id="linearGradient6126"
       gradientUnits="userSpaceOnUse"
       gradientTransform="matrix(0.03232358,0,0,0.03007604,139.7161,60.823122)"
       x1="189.99045"
       y1="149.43248"
       x2="237.45485"
       y2="161.64449" /><linearGradient
       xlink:href="#linearGradient6191"
       id="linearGradient6140"
       gradientUnits="userSpaceOnUse"
       gradientTransform="matrix(0.04063885,0,0,0.04063885,134.71922,57.090533)"
       x1="217.78572"
       y1="138.54501"
       x2="239.16449"
       y2="135.8837" /><linearGradient
       xlink:href="#linearGradient4581"
       id="linearGradient6154"
       gradientUnits="userSpaceOnUse"
       gradientTransform="matrix(0.04063885,0,0,0.04063885,137.91084,55.853935)"
       x1="309.67981"
       y1="206.68001"
       x2="248.76076"
       y2="192.84193" /><linearGradient
       xlink:href="#linearGradient6175"
       id="linearGradient6168"
       gradientUnits="userSpaceOnUse"
       gradientTransform="matrix(0.04063885,0,0,0.04063885,137.85193,60.529452)"
       x1="166.88205"
       y1="128.74918"
       x2="191.23195"
       y2="136.90628" /><linearGradient
       xlink:href="#linearGradient6284"
       id="linearGradient6090-4"
       gradientUnits="userSpaceOnUse"
       x1="1.9179062"
       y1="143.0563"
       x2="33.994759"
       y2="143.28406"
       gradientTransform="matrix(0.00300953,0,0,0.02934776,145.52633,58.952001)" /><linearGradient
       xlink:href="#linearGradient6292"
       id="linearGradient6241"
       gradientUnits="userSpaceOnUse"
       gradientTransform="matrix(0.0028934,0,0,0.02934776,149.26913,58.572287)"
       x1="-51.859997"
       y1="152.2153"
       x2="-20.034134"
       y2="152.12407" /><linearGradient
       xlink:href="#linearGradient1063"
       id="linearGradient6277"
       gradientUnits="userSpaceOnUse"
       gradientTransform="matrix(-0.04063885,0,0,-0.04063885,146.52326,68.143295)"
       x1="25.198519"
       y1="120.54391"
       x2="36.303837"
       y2="125.9909" /><linearGradient
       xlink:href="#linearGradient6408"
       id="linearGradient6410"
       x1="152.39967"
       y1="62.696972"
       x2="218.28354"
       y2="63.510487"
       gradientUnits="userSpaceOnUse"
       gradientTransform="matrix(0.04063885,0,0,0.04063885,140.19131,60.535675)" /><linearGradient
       xlink:href="#linearGradient6454"
       id="linearGradient6447"
       gradientUnits="userSpaceOnUse"
       x1="142.2836"
       y1="36.266224"
       x2="199.92972"
       y2="70.154541"
       gradientTransform="translate(59.068409,55.900583)" /><linearGradient
       id="linearGradient6454"><stop
         style="stop-color:#8f8f8f;stop-opacity:1;"
         offset="0.45603073"
         id="stop6450" /><stop
         style="stop-color:#000000;stop-opacity:1;"
         offset="0.99291033"
         id="stop6452" /></linearGradient><linearGradient
       xlink:href="#linearGradient6292"
       id="linearGradient6574"
       gradientUnits="userSpaceOnUse"
       gradientTransform="matrix(0.0028934,0,0,0.02934776,151.03422,61.050317)"
       x1="-71.38266"
       y1="157.3102"
       x2="21.30797"
       y2="156.3132" /><linearGradient
       xlink:href="#linearGradient6581"
       id="linearGradient6583"
       x1="263.86554"
       y1="112.98267"
       x2="149.87532"
       y2="79.911293"
       gradientUnits="userSpaceOnUse"
       gradientTransform="matrix(0.04063885,0,0,0.04063885,140.19131,60.535675)" /><radialGradient
       xlink:href="#linearGradient6700"
       id="radialGradient6704"
       cx="179.17371"
       cy="121.15147"
       fx="179.17371"
       fy="121.15147"
       r="4.590992"
       gradientTransform="matrix(0.02089989,0.02663328,-0.02897765,0.02273959,147.24617,57.916457)"
       gradientUnits="userSpaceOnUse" /><linearGradient
       xlink:href="#linearGradient6735"
       id="linearGradient6737"
       x1="195.58882"
       y1="128.40327"
       x2="195.48935"
       y2="119.78596"
       gradientUnits="userSpaceOnUse"
       gradientTransform="matrix(0.04063885,0,0,0.04063885,140.19131,60.535675)" /><linearGradient
       xlink:href="#linearGradient6842"
       id="linearGradient6844"
       x1="190.30051"
       y1="127.21318"
       x2="190.86075"
       y2="118.48804"
       gradientUnits="userSpaceOnUse"
       gradientTransform="matrix(0.04063885,0,0,0.04063885,140.19131,60.535675)" /><linearGradient
       xlink:href="#linearGradient1408"
       id="linearGradient1410"
       x1="198.15833"
       y1="128.1306"
       x2="198.6711"
       y2="121.19138"
       gradientUnits="userSpaceOnUse"
       gradientTransform="matrix(0.04063885,0,0,0.04063885,140.19131,60.535675)" /><linearGradient
       xlink:href="#linearGradient6735"
       id="linearGradient1708"
       gradientUnits="userSpaceOnUse"
       x1="179.48354"
       y1="122.77059"
       x2="179.30061"
       y2="117.24083"
       gradientTransform="matrix(0.04063885,0,0,0.04063885,143.71673,60.621449)" /><linearGradient
       xlink:href="#linearGradient4110"
       id="linearGradient4112"
       x1="36.20435"
       y1="133.54445"
       x2="36.250889"
       y2="122.3628"
       gradientUnits="userSpaceOnUse"
       gradientTransform="matrix(0.04063885,0,0,0.04063885,140.19131,60.535675)" /><linearGradient
       xlink:href="#linearGradient4110"
       id="linearGradient4147"
       gradientUnits="userSpaceOnUse"
       x1="37.727409"
       y1="141.26854"
       x2="42.451916"
       y2="123.4507"
       gradientTransform="matrix(0.04063885,0,0,0.04063885,140.80912,60.71018)" /><linearGradient
       xlink:href="#linearGradient4110"
       id="linearGradient4184"
       gradientUnits="userSpaceOnUse"
       gradientTransform="matrix(0.04063885,0,0,0.04063885,139.43339,60.509935)"
       x1="37.727409"
       y1="141.26854"
       x2="42.451916"
       y2="123.4507" /><linearGradient
       xlink:href="#linearGradient6349"
       id="linearGradient4184-8"
       gradientUnits="userSpaceOnUse"
       gradientTransform="matrix(0.04063885,0,0,0.04063885,144.39964,61.522164)"
       x1="58.725292"
       y1="139.09343"
       x2="33.381886"
       y2="131.67665" /><linearGradient
       xlink:href="#linearGradient68639"
       id="linearGradient68641"
       x1="1548.0253"
       y1="354.83563"
       x2="1548.8824"
       y2="290.22067"
       gradientUnits="userSpaceOnUse"
       gradientTransform="matrix(0.1448984,0,0,0.13934013,-78.04145,18.544546)" /><linearGradient
       id="linearGradient68639"><stop
         style="stop-color:#9aabc5;stop-opacity:1;"
         offset="0"
         id="stop68635" /><stop
         style="stop-color:#ebeff3;stop-opacity:1;"
         offset="1"
         id="stop68637" /></linearGradient><linearGradient
       xlink:href="#linearGradient8840"
       id="linearGradient8459"
       gradientUnits="userSpaceOnUse"
       gradientTransform="matrix(0.04437949,0,0,0.04437949,141.53521,61.583944)"
       x1="221.22472"
       y1="135.20387"
       x2="157.26782"
       y2="100.60886" /><filter
       style="color-interpolation-filters:sRGB"
       id="filter12023"
       x="-0.077459037"
       y="-0.15856074"
       width="1.1549181"
       height="1.3171215"><feGaussianBlur
         stdDeviation="0.066000907"
         id="feGaussianBlur12025" /></filter><filter
       style="color-interpolation-filters:sRGB"
       id="filter12023-9"
       x="-1.2397851"
       y="-0.51075488"
       width="3.4795702"
       height="2.0215099"><feGaussianBlur
         stdDeviation="0.12584852"
         id="feGaussianBlur12025-2" /></filter><filter
       style="color-interpolation-filters:sRGB"
       id="filter12023-9-8"
       x="-0.55766606"
       y="-0.58180839"
       width="2.1153321"
       height="2.1636169"><feGaussianBlur
         stdDeviation="0.074615718"
         id="feGaussianBlur12025-2-0" /></filter><filter
       style="color-interpolation-filters:sRGB"
       id="filter12023-8"
       x="-0.01322391"
       y="-0.063751288"
       width="1.0264478"
       height="1.1275026"><feGaussianBlur
         stdDeviation="0.066000907"
         id="feGaussianBlur12025-1" /></filter><filter
       style="color-interpolation-filters:sRGB"
       id="filter12443"
       x="-6.9691828e-06"
       y="-2.1161753e-05"
       width="1.0000139"
       height="1.0000423"><feGaussianBlur
         stdDeviation="8.2165623e-05"
         id="feGaussianBlur12445" /></filter><rect
       x="533.95398"
       y="261.62952"
       width="38.537319"
       height="15.026019"
       id="rect12439-8" /><filter
       style="color-interpolation-filters:sRGB"
       id="filter12443-3"
       x="-2.6318945e-05"
       y="-2.0951267e-05"
       width="1.0000526"
       height="1.0000418"><feGaussianBlur
         stdDeviation="8.2165623e-05"
         id="feGaussianBlur12445-31" /></filter><rect
       x="533.95398"
       y="261.62952"
       width="38.537319"
       height="15.026019"
       id="rect12439-8-1" /><filter
       style="color-interpolation-filters:sRGB"
       id="filter12443-3-4"
       x="-5.6464407e-05"
       y="-0.00017594434"
       width="1.0001129"
       height="1.0003519"><feGaussianBlur
         stdDeviation="8.2165623e-05"
         id="feGaussianBlur12445-31-2" /></filter><filter
       style="color-interpolation-filters:sRGB"
       id="filter12023-8-5-3-7"
       x="-0.015123803"
       y="-0.055489976"
       width="1.0302476"
       height="1.1109799"><feGaussianBlur
         stdDeviation="0.066000907"
         id="feGaussianBlur12025-1-8-3-4" /></filter></defs><g
     id="layer2"
     transform="matrix(3.9999991,0,0,3.9999991,-558.7973,-235.90802)"><path
       d="m 139.70032,61.851496 -8e-4,7.032419 c -0.0159,1.491995 1.13406,2.973817 2.90388,2.975089 l 6.85218,6.35e-4 c 1.68034,0 2.94123,-1.320336 2.94378,-2.9824 l -0.002,-7.129691 c 0,-1.462273 -1.34768,-2.768464 -2.83172,-2.77053 h -6.98951 c -1.49597,0 -2.87718,1.301423 -2.87622,2.874478 z"
       style="display:inline;fill:url(#linearGradient68641);fill-opacity:1;stroke-width:0.154438;stroke-dasharray:none"
       id="path68445" /><path
       d="m 142.15102,66.575269 -0.1311,-0.994222 1.18099,0.03719 -0.0852,1.174968 z"
       style="fill:url(#linearGradient4147);fill-opacity:1;stroke-width:0.0107524"
       id="path6312-4-6" /><path
       d="m 144.79444,62.764352 c 0.0339,-0.10356 0.0843,-0.223447 0.19711,-0.274953 0.17789,-0.07363 0.37008,-0.104369 0.56605,-0.123799 -0.0118,-0.148297 0.10478,-0.224006 0.37545,-0.232473 l 1.5915,-0.155961 1.0195,0.143426 0.0572,0.03348 c 0.0368,7.24e-4 0.0567,0.01847 0.0648,0.048 l 0.26451,0.195789 c 0.17631,0.01863 0.3313,0.07316 0.33882,0.321191 l -0.11285,-0.01611 c 0.0168,-0.04852 -0.0205,-0.192789 -0.13366,-0.187167 0.0256,0.06164 -0.005,0.129288 -0.0414,0.129413 l -0.22551,-0.01503 c -0.79978,-0.05122 -1.66862,-0.02928 -2.61155,0.04999 l 0.22545,0.684478 c 0.0721,0.229484 0.44186,0.240462 0.62971,0.261732 0.30451,0.03355 0.65998,0.04842 0.94792,0.06561 l -2.15373,0.0855 -1.01918,-0.03687 c -0.0466,-0.0055 -0.069,-0.05112 -0.0607,-0.122585 -0.002,-0.291655 0.0408,-0.572306 0.0804,-0.85364 z"
       style="fill:#0b0b0b;stroke-width:0.0107524"
       id="path6312-0" /><path
       d="m 141.39284,66.014412 -0.0182,-0.508041 0.63823,-0.0759 -0.041,0.640014 z"
       style="fill:url(#linearGradient4112);fill-opacity:1;stroke-width:0.0107524"
       id="path6312-4" /><path
       d="m 149.26863,66.512885 -1.88433,0.713254 c -0.0351,0.508348 -0.32163,0.685225 -0.4881,0.698747 -0.0624,0.0159 -0.40802,0.02799 -0.61203,0.04197 0.49094,-0.01657 0.6301,-0.700428 0.60043,-1.223991 -0.0243,-0.382869 -0.21447,-0.927267 -0.64106,-0.854031 -0.51794,0.109055 -0.641,0.691894 -0.59189,1.243199 -0.68073,-0.249188 -1.3617,-0.265977 -2.05882,-0.400321 -0.002,0.106717 -0.0913,0.203635 -0.149,0.236444 l -0.56122,0.0066 c 0.1499,-0.04898 0.28871,-0.356916 0.28321,-0.762025 -0.002,-0.259822 -0.0594,-0.62954 -0.28382,-0.736073 -0.21643,-0.07738 -0.28627,0.313689 -0.30422,0.645179 -0.01,0.197713 0.0114,0.455771 0.10799,0.665892 -0.1018,0.03339 -0.2806,0.05362 -0.41121,0.04641 0.21081,-0.03586 0.24192,-0.429221 0.24795,-0.67225 0.009,-0.27562 -0.0167,-0.620827 -0.22469,-0.717645 -0.15093,-0.05626 -0.24516,0.274565 -0.25035,0.564253 -8e-4,0.197835 0.0131,0.360035 0.0558,0.546437 l -0.66318,-0.243265 0.006,-0.356727 0.49109,0.04157 0.0237,-0.524449 -0.47192,0.07089 c -0.0587,0.249088 0.0726,0.70187 -0.082,0.863148 -0.0406,0.04238 -0.13654,0.03726 -0.21851,0.03552 0,0 -0.0838,-0.193961 -0.0846,-0.320436 -0.002,-0.09953 -0.002,-0.154788 3.3e-4,-0.229567 -0.0241,5.06e-4 -0.0532,-0.01577 -0.0533,-0.03577 l 6.9e-4,-0.413114 1.38028,-0.212955 0.98144,-0.363013 7.71353,0.520934 0.037,0.193663 0.12488,0.776163 z"
       style="fill:#0b0b0b;stroke-width:0.0107524"
       id="path2585" /><path
       d="m 145.70854,66.927876 0.26858,-0.860086 0.6273,-0.0058 0.21807,0.859942 -0.34817,0.760458 -0.45862,-0.05356 z"
       style="fill:url(#linearGradient4184-8);fill-opacity:1;stroke-width:0.0107524"
       id="path6312-4-6-1-8" /><path
       d="m 141.1843,66.374208 -0.0609,-0.169847 -0.0196,-0.337342 0.056,-0.273568 0.0818,0.06372 0.01,0.522951 z"
       style="fill:url(#linearGradient4184);fill-opacity:1;stroke-width:0.0107524"
       id="path6312-4-6-1" /><path
       d="m 142.40747,60.990299 0.0107,-0.221624 c 0.005,-0.06503 0.0918,-0.118405 0.14797,-0.112694 l 0.90145,0.03945 -0.0873,0.328233 z"
       style="fill:#0b0b0b;stroke-width:0.0107524"
       id="path6312" /><path
       d="m 145.55314,62.603462 -0.0359,1.115946 c 0.0412,-0.01124 0.0775,-0.06752 0.0987,-0.188772 0.01,-0.274568 0.0115,-0.565627 -0.0195,-0.949011 z"
       style="fill:url(#linearGradient6090-4);fill-opacity:1;stroke:none;stroke-width:0.00248655;stroke-opacity:1"
       id="path6031-9-1" /><path
       d="m 141.02245,65.464717 -8.1e-4,-0.175914 1.42484,-0.324714 1e-5,0.262263 z"
       style="fill:url(#linearGradient1065);fill-opacity:1;stroke-width:0.0107524"
       id="path457" /><path
       d="m 149.1251,62.691304 -7.8e-4,0.720271 c 0.031,0.05569 0.0696,0.138051 0.10623,0.253541 l -0.039,-0.965514 z"
       style="fill:url(#linearGradient6241);fill-opacity:1;stroke:none;stroke-width:0.00243811;stroke-opacity:1"
       id="path6031-9-1-4" /><path
       d="m 144.87486,60.744826 -1.19373,-0.112663 1.21767,-0.119354 c 0.89297,0.0017 1.39899,0.04789 2.09955,0.08892 0.35477,0.03063 0.66703,0.129756 0.85457,0.353102 0.43061,0.520245 0.55995,0.874939 0.6945,1.164504 l -0.0563,0.0045 c 0,0 -0.5283,-0.75424 -1.00715,-0.971972 -0.88093,-0.40057 -2.06104,-0.376799 -2.60907,-0.407101 z"
       style="fill:url(#linearGradient1160);fill-opacity:1;stroke-width:0.0107524"
       id="path457-8" /><path
       d="m 144.34473,60.849108 c 0.096,-0.01455 0.1966,-0.01993 0.32439,0.02906 0.30465,0.166539 0.97645,0.657637 1.2667,1.267269 -0.26203,0.02054 -0.34246,0.04616 -0.38409,0.220129 -0.003,-0.458259 -0.7338,-1.060928 -1.207,-1.51645 z"
       style="fill:url(#linearGradient1174);fill-opacity:1;stroke-width:0.0107524"
       id="path457-82" /><path
       d="m 146.3795,63.402455 -0.30893,-0.832411 2.6726,0.03981 c 0.20389,0.326178 0.40188,0.723778 0.49748,1.086616 l -1.32636,0.03739 -0.71297,-0.004 c -0.34163,-0.0027 -0.74663,-0.123714 -0.82182,-0.327368 z"
       style="fill:url(#linearGradient6410);fill-opacity:1;stroke-width:0.0107524"
       id="path6312-1" /><path
       d="m 143.34622,65.77692 c 0.0662,-0.149584 0.30502,-0.296152 0.84692,-0.18126 0.28111,0.07391 0.63582,0.638248 0.76171,0.917153 0.19695,-0.154186 0.38629,-0.172876 0.63256,-0.09606 0,0 0.0187,0.420522 0.074,0.722039 -0.89192,-0.2456 -1.27179,-0.113615 -2.16502,-0.359538 -0.16328,-0.347952 -0.20764,-0.654385 -0.15013,-1.002338 z"
       style="fill:url(#linearGradient1252);fill-opacity:1;stroke-width:0.0107524"
       id="path457-4-2" /><path
       d="m 143.94053,61.192571 0.51731,-0.09151 c -0.028,-0.06122 -0.11485,-0.257218 -0.11485,-0.257218 0.0463,0.0014 1.3054,1.088865 1.20702,1.522792 -0.18856,0.02732 -0.36089,0.06925 -0.53051,0.119397 -0.1002,0.03028 -0.1793,0.148692 -0.2079,0.258552 -0.0357,0.139776 -0.0906,0.615515 -0.0944,0.915764 -0.002,0.05513 0.0539,0.06628 0.14828,0.06949 l 0.49506,0.01637 c 0.002,0.147143 0.14653,0.261144 0.52457,0.252324 0.045,0.04319 0.0577,0.04931 0.10054,0.09421 l 0.18753,0.01571 c -0.0446,-0.06611 -0.09,-0.13047 -0.14496,-0.17563 -0.2751,-0.0062 -0.53594,-0.04393 -0.56675,-0.18387 l 0.75059,-6.11e-4 c 0.03,0.08845 0.11284,0.197003 0.18122,0.263007 0.0943,0.07615 0.27219,0.131735 0.44592,0.137387 0.1927,0.006 1.24394,0.177893 1.40971,0.256707 0.0984,0.05172 0.25559,0.340467 0.27554,0.420402 0.0956,0.382371 0.2904,0.814727 0.43691,1.094902 0.0249,0.04017 0.1854,0.151261 0.23723,0.170447 l -0.29567,-0.05397 -0.0873,-0.142303 -0.30037,-0.442171 c -0.66929,-0.56874 -1.4065,-0.811105 -2.1109,-0.840083 -0.74856,-0.02439 -1.42215,0.513067 -0.89326,0.891795 -0.0443,0.08142 0.0739,0.133182 0.15406,0.205227 l -1.59055,-0.278159 c -0.0974,-0.254923 -0.14785,-2.805065 -0.13398,-4.238955 z"
       style="fill:url(#linearGradient1294);fill-opacity:1;stroke-width:0.0107524"
       id="path457-4-2-2" /><path
       d="m 149.75606,67.529038 c -0.16266,-0.0041 -0.35568,-0.240656 -0.35463,-0.371605 l 1.37466,-0.134391 c -5.2e-4,0.19629 -0.16898,0.436251 -0.33849,0.469614 -0.14658,0.02358 -0.45875,0.03732 -0.68154,0.03639 z"
       style="fill:#0b0b0b;stroke-width:0.0107524"
       id="path2888" /><path
       d="m 147.91933,66.979916 c 0.33384,-0.01288 0.60833,0.147379 1.301,0.08934 0.77243,-0.07949 2.14731,0.112556 1.93019,-1.359073 0.39257,0.479321 0.0837,1.270821 -0.3577,1.331199 -0.86456,0.137773 -2.75005,0.219351 -3.13425,0.226837 -0.1523,0.0018 -0.4021,-0.02473 -0.40806,-0.185615 l -0.008,-0.254713 c 0.0919,0.221439 0.22662,0.320667 0.33469,0.36709 0.0621,-0.131005 0.17657,-0.209529 0.34147,-0.215063 z"
       style="fill:url(#linearGradient1344);fill-opacity:1;stroke-width:0.0107524"
       id="path457-4-2-2-7" /><path
       d="m 145.34733,61.000545 c 0.56019,-0.03498 1.00438,-0.05979 1.50197,-0.07138 0.1954,-8.87e-4 0.77449,0.239634 1.00001,0.465618 0.25447,0.235719 0.47022,0.484193 0.64687,0.731033 -0.35314,-0.06751 -0.59615,-0.07912 -0.95135,-0.0796 -0.33655,-0.150412 -0.55597,-0.290503 -1.33226,-0.318553 -0.36427,-0.02858 -0.92886,-0.668594 -1.24514,-0.641084 l -0.24397,-0.174855 c 0.157,0.03127 0.46134,0.09846 0.62387,0.08882 z"
       style="fill:url(#linearGradient1308);fill-opacity:1;stroke-width:0.0107524"
       id="path457-4-2-0" /><path
       d="m 149.22956,63.645254 -0.0397,-0.946021 c 0.15456,0.0044 0.2612,0.09966 0.27214,0.278297 0.0116,0.198815 0.0115,0.401216 0.0113,0.557819 6.2e-4,0.08418 -0.15666,0.103097 -0.2437,0.109905 z"
       style="fill:url(#linearGradient1216);fill-opacity:1;stroke-width:0.0107524"
       id="path457-2" /><path
       d="m 145.55572,62.602889 -0.0382,1.115816 c -0.1511,-0.0046 -0.30842,-0.02726 -0.32914,-0.18503 -0.0218,-0.166221 -0.0226,-0.539685 -0.005,-0.659666 0.0114,-0.145644 0.19201,-0.2681 0.37178,-0.27112 z"
       style="fill:url(#linearGradient6277);fill-opacity:1;stroke-width:0.0107524"
       id="path457-2-9" /><path
       d="m 143.32054,66.084506 c -6.2e-4,-0.285109 -0.12796,-0.790557 0.0668,-0.787406 l -0.0996,-1.975792 0.0851,-2.3226 0.0667,0.237318 0.21996,3.62336 c 0.0212,0.311839 0.19999,0.428009 0.43713,0.493457 l 1.57741,0.356619 -2.07302,-0.297929 c -0.22496,-0.03088 -0.23894,0.449426 -0.28045,0.672973 z"
       style="fill:url(#linearGradient1124);fill-opacity:1;stroke-width:0.0107524"
       id="path1110" /><path
       d="m 141.07022,63.017743 1.35562,-2.25649 0.0184,4.202773 -1.42627,0.327564 z"
       style="fill:url(#linearGradient1055);fill-opacity:1;stroke-width:0.0107524"
       id="path424" /><path
       d="m 142.42438,60.974492 0.94528,0.05 c -0.0281,1.453505 -0.0459,2.66126 0.0205,4.269603 l -0.81189,0.0023 c -0.0916,0.0037 -0.1528,-0.03683 -0.15273,-0.137429 z"
       style="fill:url(#linearGradient1098);fill-opacity:1;stroke-width:0.0107524"
       id="path1076" /><path
       d="m 147.08272,66.019092 c 0.0581,0.306481 0.12944,0.774096 0.20114,0.930427 0.0741,0.152777 0.20986,0.222473 0.29653,0.250444 0.0888,-0.15552 0.25187,-0.22674 0.37035,-0.216784 0.28482,0.0325 0.8924,0.144415 1.33195,0.12915 0.49087,-0.02569 1.04278,-0.130082 1.04278,-0.130082 0.7075,-0.158261 0.98521,-0.644814 0.82667,-1.271237 -0.1843,4.15e-4 -0.34603,0.290296 -0.38041,0.34252 -0.22811,0.323452 -0.72737,0.326551 -0.86927,0.346708 -0.60644,0.03375 -0.92059,-0.151935 -1.32025,-0.351377 -0.58135,-0.09192 -0.97553,-0.09926 -1.49949,-0.02977 z"
       style="fill:url(#linearGradient6053);fill-opacity:1;stroke:none;stroke-width:0.0107524;stroke-opacity:1"
       id="path6031" /><path
       d="m 144.9641,61.089334 c 0.30405,0.242407 0.72898,0.615192 0.96911,1.058092 0.58633,-0.09229 0.99735,-0.09941 1.61636,-0.09858 -0.44714,-0.230929 -0.72889,-0.281067 -1.2534,-0.327211 -0.0702,-0.0049 -0.2258,-0.01773 -0.34697,-0.08998 l -0.56497,-0.390735 c 0,0 -0.28976,-0.196412 -0.42013,-0.151589 z"
       style="fill:url(#linearGradient6090);fill-opacity:1;stroke:none;stroke-width:0.0107524;stroke-opacity:1"
       id="path6031-9" /><path
       d="m 144.22215,65.606724 c 0.28533,0.32109 0.54251,0.595341 0.72828,0.919768 0.2219,-0.140487 0.42089,-0.1931 0.63711,-0.100171 0.004,-0.271944 0.0185,-0.41603 0.0585,-0.641806 z"
       style="fill:url(#linearGradient6168);fill-opacity:1;stroke:none;stroke-width:0.0107524;stroke-opacity:1"
       id="path6031-9-56" /><path
       d="m 145.66823,65.713345 c 0.0371,-0.245088 0.0163,-0.415869 0.41594,-0.521464 0.2452,-0.056 0.45019,-0.02137 0.68763,0.128711 0.25567,0.161568 0.3421,0.455715 0.30764,0.578836 0.7904,-0.01333 1.08284,0.0051 1.82348,0.137652 -0.0352,-0.06467 -0.0628,-0.122147 -0.0979,-0.145958 -0.33311,-0.09023 -0.69018,-0.146985 -1.0944,-0.137656 l -0.53427,-0.38683 c 0.39035,-0.1426 0.88014,-0.05648 1.35166,0.102207 l -0.0122,-0.0177 c -0.22366,-0.205051 -0.68308,-0.483158 -0.79945,-0.533368 -0.11897,-0.06484 -0.70958,-0.314578 -1.24487,-0.31477 -0.35655,8.1e-5 -0.73953,0.07119 -1.01214,0.31393 -0.1522,0.125753 -0.16157,0.27323 -0.13667,0.347099 0.0292,0.08651 0.0673,0.164983 0.18665,0.241108 -0.0645,0.08242 0.11757,0.172726 0.15899,0.2082 z"
       style="display:inline;fill:url(#linearGradient6126);fill-opacity:1;stroke:none;stroke-width:0.00824958;stroke-opacity:1"
       id="path6031-9-0" /><path
       d="m 143.6579,60.619672 c -0.34382,0.04677 -0.40666,0.211364 -0.2418,0.585235 l 0.23424,3.688158 c 0.0181,0.278592 0.22223,0.452836 0.40146,0.45399 l 0.40346,-4.251667 -0.10595,-0.252862 c 0.12354,-0.0095 0.23242,0.0097 0.41898,0.08609 0.19268,0.05325 0.3593,0.08297 0.56997,0.06851 l 1.46797,-0.07494 c -0.92382,-0.180931 -1.60943,-0.161648 -3.14833,-0.302536 z"
       style="fill:url(#linearGradient6140);fill-opacity:1;stroke:none;stroke-width:0.0107524;stroke-opacity:1"
       id="path6031-9-8" /><path
       d="m 148.89739,65.87632 c -0.3358,-0.596071 -0.60468,-1.355751 -0.85132,-1.471864 -0.35153,-0.111476 -0.86274,-0.215498 -1.35908,-0.258634 -0.2089,-0.02247 -0.39656,-0.133124 -0.48822,-0.398028 l 0.47608,-0.0152 c 0.44068,0.07218 0.84925,0.103117 1.21433,0.2334 0.0901,0.02772 0.38943,0.132297 0.62943,0.283276 l 0.64826,-0.553063 0.0615,8.4e-5 c 0.0287,-0.0023 0.82998,0.171378 1.19815,0.313083 0.22552,0.0914 0.37237,0.191835 0.4111,0.422985 0.056,0.327387 0.0952,0.519933 0.20585,0.702035 -0.0743,0.144602 -0.13319,0.333585 -0.17481,0.515766 l 0.007,-0.636932 -0.0779,0.785063 c -0.0228,0.226012 -0.55852,0.39449 -0.94907,0.395366 -0.35207,-0.01133 -0.81141,-0.06991 -0.95048,-0.317389 z"
       style="display:inline;fill:url(#linearGradient6583);fill-opacity:1;stroke-width:0.0447848"
       id="path6464" /><path
       d="m 150.8761,64.994278 -0.0804,0.811498 c 0.10777,-0.03151 0.27816,-0.117293 0.30964,-0.143646 -0.0191,-0.03214 -0.0453,-0.08276 -0.0953,-0.0643 l -0.14006,0.03834 z"
       style="fill:url(#linearGradient6574);fill-opacity:1;stroke:none;stroke-width:0.00243811;stroke-opacity:1"
       id="path6560" /><path
       d="m 150.87576,65.630204 0.13753,-0.344765 c 0.0534,0.01127 0.10338,0.157272 0.1029,0.238363 z"
       style="display:inline;fill:url(#linearGradient1708);fill-opacity:1;stroke-width:0.0107524"
       id="path1694" /><path
       d="m 150.8513,65.652699 0.18114,-0.537771 c 0.10338,0.150136 0.15039,0.29399 0.13026,0.463756 z m 0.24518,-0.146638 c -0.005,-0.07832 -0.0239,-0.152412 -0.0872,-0.20577 l -0.13107,0.326288 z"
       style="fill:#aeaeae;fill-opacity:1;stroke-width:0.0107524"
       id="path6593" /><path
       d="m 148.52663,65.46868 0.31646,0.460881 c -0.0567,-0.08239 -1.12704,-0.167834 -1.12704,-0.167834 l -0.58199,-0.398266 c 0.25013,-0.09374 0.7983,-0.174974 1.39257,0.105219 z m -1.22343,-0.06517 0.41359,0.344971 c 0.21534,-0.0039 0.82395,6.7e-4 0.99016,0.06104 l -0.25342,-0.277141 c -0.39932,-0.177425 -0.82214,-0.291828 -1.15033,-0.12887 z"
       style="fill:#aeaeae;fill-opacity:1;stroke-width:0.0107524"
       id="path6658" /><path
       d="m 147.5881,65.653002 0.0425,-0.351321 c 0.20918,-0.01204 0.44144,0.01602 0.70829,0.13459 0.15859,0.07231 0.29006,0.267354 0.38114,0.380665 -0.29267,-0.07684 -0.73837,-0.0685 -1.00056,-0.05931 -0.0381,-0.03287 -0.0836,-0.07175 -0.13131,-0.104613 z"
       style="display:inline;fill:url(#linearGradient6737);fill-opacity:1;stroke-width:0.0107524"
       id="path6716" /><path
       d="m 147.289,65.407941 0.29428,0.233403 0.0497,-0.335589 c -0.11682,0.01267 -0.24825,0.05001 -0.344,0.102186 z"
       style="fill:url(#radialGradient6704);fill-opacity:1;stroke:#c84100;stroke-width:0.0107524;stroke-opacity:1"
       id="path6681" /><path
       d="m 147.76595,65.439774 c -0.0385,0.08346 -0.0292,0.160955 0.037,0.239756 0.0756,0.0842 0.22182,0.06912 0.28423,-0.06414 0.0388,-0.09057 1.8e-4,-0.188556 -0.0536,-0.237871 -0.0667,-0.06477 -0.21276,-0.04378 -0.2677,0.06225 z m 0.23656,0.09515 c 0.002,0.05263 -0.0242,0.122288 -0.0755,0.124049 -0.0487,0.0024 -0.0737,-0.06084 -0.0738,-0.125506 -0.004,-0.051 0.0319,-0.109766 0.0722,-0.110771 0.054,6.21e-4 0.0774,0.06869 0.0771,0.112228 z"
       style="fill:url(#linearGradient6844);fill-opacity:1;stroke:none;stroke-width:0;stroke-dasharray:none;stroke-opacity:1"
       id="path6749" /><path
       d="m 148.15268,65.533937 c -0.0257,0.05571 -0.0196,0.117985 0.017,0.164577 0.0443,0.0487 0.14057,0.06119 0.19276,-0.03529 0.0259,-0.04844 0.005,-0.137915 -0.0312,-0.170837 -0.0445,-0.04323 -0.14204,-0.02922 -0.17871,0.04156 z m 0.15792,0.06352 c 8.2e-4,0.03513 -0.0162,0.08164 -0.0504,0.08282 -0.0326,0.0017 -0.0492,-0.04061 -0.0492,-0.0838 -0.003,-0.03405 0.0213,-0.07326 0.0482,-0.07395 0.0361,4.19e-4 0.0517,0.04585 0.0514,0.07493 z"
       style="fill:url(#linearGradient1410);fill-opacity:1;stroke:none;stroke-width:0;stroke-dasharray:none;stroke-opacity:1"
       id="path6749-8" /><path
       d="m 146.46968,63.734445 c 0.66106,0.142138 0.82745,0.182842 1.09986,0.264548 0.33496,0.10183 0.72561,0.235918 0.72561,0.235918 0.17336,0.04564 0.29268,0.08312 0.51591,0.10889 l 1.20093,0.143746 0.52088,-0.177516 c 0.12015,-0.04503 0.13669,-0.09286 0.0521,-0.143325 -0.4099,-0.225295 -0.92133,-0.301539 -1.41239,-0.470287 -1.03387,-0.06105 -1.30229,-0.04142 -2.70293,0.03802 z"
       style="display:inline;fill:url(#linearGradient6154);fill-opacity:1;stroke:none;stroke-width:0.0107524;stroke-opacity:1"
       id="path6031-9-5" /><path
       d="m 145.3492,63.699191 0.11852,0.01689 c 6.5e-4,0.106819 0.0733,0.201704 0.56336,0.214047 0.0716,0.0599 0.10691,0.10375 0.14571,0.177401 l -0.19849,-0.0072 c -0.0232,-0.04011 -0.051,-0.06758 -0.0919,-0.09991 -0.39254,0.0032 -0.53263,-0.08814 -0.53727,-0.301294 z"
       style="fill:#0b0b0b;stroke-width:0.0107524"
       id="path6312-06" /><path
       d="m 147.30573,68.197006 c 1.44501,-0.298493 4.80823,-1.365935 4.77761,-0.550153 -0.0633,0.67604 -5.09367,0.984777 -5.90094,0.751593 l -3.90075,-0.866689 -1.6804,-0.725263 -0.49617,-0.433711 0.73495,-0.381938 1.27152,1.185549 1.00967,-0.18359 1.2404,0.386668 c 0.7821,0.393181 2.53781,0.922365 2.94411,0.817534 z"
       style="opacity:0.462222;fill:#0b0b0b;stroke-width:0.012138;filter:url(#filter12023-8)"
       id="path11986-4-76"
       transform="matrix(0.88584238,0,0,0.88584238,16.677779,7.3434824)" /><path
       d="m 150.53833,64.529023 0.24362,0.03737 -0.11771,0.553983 -0.0668,-0.0032 z"
       style="opacity:0.337778;fill:#0b0b0b;stroke-width:0.012138;filter:url(#filter12023-9)"
       id="path11986-4-7"
       transform="matrix(0.88584238,0,0,0.88584238,16.677779,7.3434824)" /><path
       d="m 151.79418,65.457221 0.0215,0.221535 0.0138,0.08626 -0.32112,-0.02366 z"
       style="opacity:0.337778;fill:#0b0b0b;stroke-width:0.012138;filter:url(#filter12023-9-8)"
       id="path11986-4-7-3"
       transform="matrix(0.88584238,0,0,0.88584238,16.677779,7.3434824)" /><path
       d="m 150.57824,64.549691 -2.00821,-0.9974 0.0983,-0.0016 1.94668,0.963762 c 0,0 -0.0329,0.03481 -0.0367,0.03521 z"
       style="opacity:0.462222;fill:#0b0b0b;stroke-width:0.012138;filter:url(#filter12023)"
       id="path11986-4"
       transform="matrix(0.88584238,0,0,0.88584238,16.677779,7.3434824)" /><g
       id="layer3"
       transform="matrix(0.04063885,0,0,0.04063885,140.19131,60.535675)"><path
         id="path6071-2-1"
         style="display:inline;fill:#363636;fill-opacity:1;stroke-width:0;stroke-miterlimit:11.9;paint-order:markers fill stroke"
         d="m 51.43407,120.35338 c -3.509881,1.6e-4 -6.068717,7.50585 -6.06888,17.13435 -2.6e-5,9.6288 2.63018,17.49438 6.140193,17.49454 3.510158,3.3e-4 6.284394,-7.56616 6.284371,-17.19533 -1.61e-4,-9.62885 -2.845666,-17.43389 -6.355684,-17.43356 z m 14.27148,0.0331 c -4.2118,1.8e-4 -7.282047,8.26494 -7.282243,18.86758 -3e-5,10.60298 3.156069,19.2648 7.368026,19.26498 4.212133,3.5e-4 7.54117,-8.33192 7.541142,-18.93528 -1.94e-4,-10.60301 -3.414959,-19.19765 -7.626925,-19.19728 z m -41.349414,1.5782 c -1.250573,1.2e-4 -2.162084,5.06934 -2.162142,11.57242 -10e-6,6.50326 0.937361,11.81568 2.18798,11.81581 1.250671,2.2e-4 2.238632,-5.1097 2.238623,-11.61324 -5.6e-5,-6.50328 -1.013841,-11.77521 -2.264461,-11.77499 z m 0.04082,4.32532 c 0.791582,0.0113 1.391746,3.43053 1.401982,7.41918 0.0091,3.52654 -0.607036,7.2965 -1.4118,7.40472 -0.767942,5e-5 -1.483411,-3.41842 -1.472262,-7.53029 0.01056,-3.90099 0.737568,-7.30193 1.48208,-7.29361 z m 27.151315,0.46715 c 2.221664,0.0123 3.905917,5.07974 3.934643,10.98538 0.02541,5.22141 -1.703884,10.80292 -3.962549,10.96315 -2.155322,6e-5 -4.163853,-5.06107 -4.132564,-11.14919 0.02963,-5.77582 2.070901,-10.81166 4.16047,-10.79934 z m 14.294218,0.6811 c 2.66596,0.0135 4.687207,5.5933 4.721675,12.09642 0.03051,5.74966 -2.044904,11.89618 -4.755265,12.07264 -2.586352,7e-5 -4.995899,-5.57323 -4.958354,-12.27728 0.03555,-6.36019 2.484496,-11.90534 4.991944,-11.89178 z m 83.715311,1.75855 c -9.0968,2.5e-4 -15.72731,11.64816 -15.72773,26.59062 -7e-5,14.94297 6.81663,27.15003 15.91376,27.15028 9.09751,5.1e-4 16.28692,-11.74171 16.28686,-26.68519 -4.2e-4,-14.94302 -7.37574,-27.05623 -16.47289,-27.05571 z m 0.29662,9.93841 c 5.75803,0.0191 10.12339,7.8831 10.19783,17.04805 0.0659,8.1031 -4.41676,16.76528 -10.27069,17.01395 -5.5861,10e-5 -10.79052,-7.85473 -10.70943,-17.30282 0.0768,-8.96353 5.36661,-16.77829 10.78229,-16.75918 z" /><path
         id="path6071-0"
         style="fill:#5e6166;fill-opacity:1;stroke-width:0;stroke-miterlimit:11.9;paint-order:markers fill stroke"
         d="m 24.324949,128.4483 c -0.44929,4e-5 -0.813579,2.60227 -0.813598,5.81204 -4e-6,3.20992 0.364292,5.81202 0.813598,5.81205 0.449328,1.4e-4 0.813604,-2.60201 0.8136,-5.81205 -2.1e-5,-3.20989 -0.364289,-5.81216 -0.8136,-5.81204 z m 27.187068,0.90847 c -1.435548,9e-5 -2.599512,4.03443 -2.599574,9.01133 -1.4e-5,4.9771 1.163976,9.01177 2.599574,9.01186 1.435663,1.9e-4 2.599584,-4.03459 2.599572,-9.01186 -6.6e-5,-4.9771 -1.163965,-9.01149 -2.599572,-9.01133 z m 14.380669,0.93637 c -1.714563,8e-5 -3.104366,4.38804 -3.10444,9.80096 -1.8e-5,5.41312 1.389816,9.80137 3.10444,9.80147 1.714705,2.1e-4 3.104973,-4.38816 3.104959,-9.80147 -8.1e-5,-5.41314 -1.390322,-9.80113 -3.104959,-9.80096 z m -41.553208,0.28991 c 0.284389,0.009 0.500155,1.69358 0.50383,3.66231 0.0033,1.74064 -0.227157,3.68122 -0.516283,3.73465 -0.275895,1e-5 -0.523919,-1.76714 -0.519915,-3.79666 0.0038,-1.92547 0.264888,-3.60441 0.532368,-3.6003 z m -0.0078,0.57929 c -0.03853,0.009 -0.06952,0.22928 -0.06953,0.50281 -3e-6,0.27795 0.03222,0.50334 0.0716,0.50333 0.03937,1e-5 0.07109,-0.22538 0.07109,-0.50333 -6e-6,-0.27787 -0.03171,-0.50281 -0.07109,-0.50281 -6.55e-4,0 -0.0015,-1.1e-4 -0.0021,0 z m -0.264628,0.7891 c -0.03937,0 -0.07109,0.22546 -0.07109,0.50333 -1e-6,0.27795 0.03171,0.50333 0.07109,0.50333 0.03938,0 0.0716,-0.22538 0.0716,-0.50333 -6e-6,-0.27787 -0.03222,-0.50333 -0.0716,-0.50333 z m 0.51732,0.0109 c -0.03853,0.009 -0.06952,0.23485 -0.06953,0.51522 -4e-6,0.28488 0.03171,0.51574 0.07109,0.51573 0.03938,1e-5 0.0716,-0.23085 0.0716,-0.51573 -6e-6,-0.28481 -0.03222,-0.51522 -0.0716,-0.51522 -5.72e-4,0 -8.55e-4,-1.1e-4 -0.0016,0 z m 26.974327,0.70435 c 0.908666,0.009 1.597292,2.6256 1.609038,5.67821 0.0104,2.69891 -0.726231,5.70802 -1.650028,5.79086 -0.881529,1e-5 -1.6732,-2.74007 -1.660406,-5.88698 0.01216,-2.98551 0.846763,-5.58845 1.701396,-5.58209 z m -27.234284,0.26252 c -0.102117,0 -0.184709,0.60582 -0.18472,1.35289 -1.2e-5,0.7472 0.08259,1.35289 0.18472,1.35289 0.102135,0 0.185254,-0.60569 0.185239,-1.35289 -1.1e-5,-0.74707 -0.08312,-1.35289 -0.185239,-1.35289 z m 27.20886,0.63562 c -0.123103,0.0107 -0.22206,0.35566 -0.222079,0.7798 -1e-5,0.43097 0.101951,0.78033 0.227786,0.78031 0.125828,2e-5 0.228318,-0.34934 0.228307,-0.78031 -1.9e-5,-0.43085 -0.102489,-0.7798 -0.228307,-0.7798 -0.0021,0 -0.0038,-1.7e-4 -0.0057,0 z m -26.847722,0.22893 c -0.03853,0.009 -0.06952,0.2298 -0.06953,0.50332 -2e-6,0.27794 0.03221,0.50333 0.0716,0.50333 0.03938,0 0.07109,-0.22539 0.07109,-0.50333 -4e-6,-0.27787 -0.03171,-0.50332 -0.07109,-0.50332 -5.74e-4,0 -0.0014,-1.1e-4 -0.0021,0 z m -0.72487,0.015 c -0.03937,0 -0.07108,0.22546 -0.07109,0.50333 -2e-6,0.27794 0.03172,0.50333 0.07109,0.50333 0.03938,0 0.07161,-0.22539 0.0716,-0.50333 -6e-6,-0.27787 -0.03223,-0.50333 -0.0716,-0.50333 z m 41.988026,0.0848 c 1.085275,0.009 1.90789,2.85583 1.921919,6.17585 0.01242,2.93535 -0.867345,6.20771 -1.970693,6.29781 -1.052865,2e-5 -1.998429,-2.98012 -1.983148,-6.40271 0.01453,-3.24707 1.011179,-6.07786 2.031922,-6.07095 z m -15.260165,0.89555 c -0.125819,0 -0.227766,0.34945 -0.227787,0.78032 -7e-6,0.43094 0.101954,0.78031 0.227787,0.78031 0.125832,0 0.2278,-0.34937 0.227786,-0.78031 -1.6e-5,-0.43087 -0.101968,-0.78032 -0.227786,-0.78032 z m 1.652103,0.016 c -0.123098,0.0109 -0.222062,0.36471 -0.222079,0.79944 -1.2e-5,0.44171 0.101958,0.79996 0.227787,0.79995 0.125836,10e-6 0.227797,-0.35824 0.227786,-0.79995 -1.9e-5,-0.4416 -0.101965,-0.79944 -0.227786,-0.79944 -0.0019,0 -0.0038,-1.7e-4 -0.0057,0 z m 13.577967,0.0651 c -0.147027,0.0116 -0.265122,0.38669 -0.265145,0.84801 -1.2e-5,0.46871 0.122116,0.84854 0.27241,0.84852 0.150285,2e-5 0.271904,-0.37981 0.271891,-0.84852 -2.2e-5,-0.46862 -0.121618,-0.84801 -0.271891,-0.84801 -0.0025,0 -0.0049,-1.8e-4 -0.0072,0 z m -41.857269,0.74259 c -0.03852,0.01 -0.06952,0.22978 -0.06953,0.50333 -2e-6,0.27792 0.03222,0.50282 0.0716,0.50281 0.03938,1e-5 0.0711,-0.22489 0.07109,-0.50281 -5e-6,-0.27789 -0.03172,-0.50333 -0.07109,-0.50333 -5.72e-4,0 -0.0014,-1e-4 -0.0021,0 z m 0.521471,0.0294 c -0.03937,0 -0.0716,0.22546 -0.0716,0.50333 -2e-6,0.27794 0.03222,0.50334 0.0716,0.50333 0.03938,10e-6 0.0711,-0.22539 0.07109,-0.50333 -5e-6,-0.27787 -0.03172,-0.50333 -0.07109,-0.50333 z m 40.326582,0.55914 c -0.150273,0 -0.271866,0.3799 -0.27189,0.84853 -1.1e-5,0.46869 0.121601,0.84904 0.27189,0.84904 0.150289,0 0.272429,-0.38035 0.272411,-0.84904 -1.8e-5,-0.46863 -0.122139,-0.84853 -0.272411,-0.84853 z m 1.973289,0.0176 c -0.147025,0.0119 -0.265125,0.3969 -0.265145,0.86972 -1.5e-5,0.4804 0.121605,0.86972 0.271891,0.86971 0.150294,1e-5 0.272421,-0.38931 0.27241,-0.86971 -2.4e-5,-0.4803 -0.122134,-0.86972 -0.27241,-0.86972 -0.0022,0 -0.0043,-1.9e-4 -0.0067,0 z m -15.372243,0.0858 c -0.326278,0 -0.590447,0.93917 -0.590481,2.09755 -3.9e-5,1.15856 0.264147,2.09806 0.590481,2.09806 0.326334,0 0.591048,-0.9395 0.591001,-2.09806 -3.3e-5,-1.15838 -0.26472,-2.09755 -0.591001,-2.09755 z m -27.180321,0.0734 c -0.03852,0.01 -0.06952,0.22978 -0.06953,0.50333 -2e-6,0.27791 0.03171,0.50282 0.07109,0.50281 0.03938,1e-5 0.0716,-0.2249 0.0716,-0.50281 -6e-6,-0.27788 -0.03222,-0.50333 -0.0716,-0.50333 -5.73e-4,0 -8.54e-4,-1.1e-4 -0.0016,0 z m 28.334303,1.26711 c -0.1231,0.0108 -0.221546,0.35619 -0.22156,0.78031 -8e-6,0.43095 0.101955,0.78033 0.227786,0.78032 0.125837,1e-5 0.227802,-0.34937 0.227788,-0.78032 -1.6e-5,-0.43084 -0.101969,-0.78031 -0.227788,-0.78031 -0.0019,0 -0.0043,-1.8e-4 -0.0062,0 z m -2.315747,0.0233 c -0.125817,0 -0.227763,0.34947 -0.227786,0.78031 -6e-6,0.43095 0.101956,0.78032 0.227786,0.78031 0.125837,1e-5 0.227799,-0.34936 0.227788,-0.78031 -1.9e-5,-0.43084 -0.101966,-0.78031 -0.227788,-0.78031 z m 15.542953,0.1819 c -0.389694,0 -0.705631,1.02112 -0.705672,2.28099 -4.7e-5,1.26005 0.315913,2.28204 0.705672,2.28204 0.389763,0 0.70573,-1.02199 0.705673,-2.28204 -3.9e-5,-1.25987 -0.315972,-2.28099 -0.705673,-2.28099 z m 1.378137,1.45779 c -0.147025,0.0117 -0.265127,0.38724 -0.265146,0.84853 -8e-6,0.46869 0.121602,0.84853 0.271891,0.84852 0.150295,1e-5 0.272427,-0.37983 0.272411,-0.84852 -1.8e-5,-0.46861 -0.122138,-0.84853 -0.272411,-0.84853 -0.0022,0 -0.0044,-2e-4 -0.0067,0 z m -2.766131,0.0258 c -0.150272,0 -0.271866,0.37993 -0.271892,0.84852 -8e-6,0.46871 0.121604,0.84854 0.271892,0.84853 0.150293,1e-5 0.272424,-0.37982 0.27241,-0.84853 -2.2e-5,-0.46859 -0.122134,-0.84852 -0.27241,-0.84852 z m -13.833726,1.13161 c -0.123098,0.0108 -0.222059,0.35567 -0.222079,0.7798 -1e-5,0.43094 0.101954,0.78032 0.227787,0.78031 0.125833,1e-5 0.227804,-0.34937 0.227787,-0.78031 -1.5e-5,-0.43088 -0.10197,-0.7798 -0.227787,-0.7798 -0.0019,0 -0.0038,-1.7e-4 -0.0057,0 z m 1.665076,0.046 c -0.125819,0 -0.227769,0.34945 -0.227788,0.78032 -8e-6,0.43094 0.101955,0.78032 0.227788,0.78031 0.125836,1e-5 0.227798,-0.34937 0.227786,-0.78031 -1.9e-5,-0.43087 -0.101965,-0.78032 -0.227786,-0.78032 z m -0.806854,1.14102 c -0.123099,0.0108 -0.22206,0.35567 -0.222079,0.7798 -10e-6,0.43094 0.101955,0.78032 0.227787,0.78031 0.125842,1e-5 0.228316,-0.34937 0.228306,-0.78031 -1.9e-5,-0.43087 -0.102485,-0.7798 -0.228306,-0.7798 -0.0019,0 -0.0038,-1.6e-4 -0.0057,0 z m 13.359002,0.72347 c -0.146794,0.0125 -0.264604,0.38724 -0.264628,0.84801 -1.2e-5,0.46869 0.121602,0.84855 0.271891,0.84853 0.150291,2e-5 0.271912,-0.37984 0.271892,-0.84853 -1.9e-5,-0.46862 -0.12162,-0.84801 -0.271892,-0.84801 -0.002,0 -0.0045,-1.3e-4 -0.0067,0 z m 1.988854,0.0496 c -0.150273,0 -0.27187,0.37992 -0.271891,0.84852 -9e-6,0.46869 0.1216,0.84854 0.271891,0.84853 0.150294,1e-5 0.272425,-0.37984 0.272411,-0.84853 -2.2e-5,-0.4686 -0.122134,-0.84852 -0.272411,-0.84852 z m -0.963554,1.24127 c -0.147025,0.0117 -0.265123,0.38673 -0.265146,0.84801 -1.4e-5,0.46871 0.121603,0.84855 0.271891,0.84852 0.150301,3e-5 0.272422,-0.37981 0.27241,-0.84852 -2.2e-5,-0.46861 -0.122133,-0.84801 -0.27241,-0.84801 -0.0022,0 -0.0043,-1.8e-4 -0.0067,0 z m 84.189306,0.663 c -4.08751,1.1e-4 -7.40159,5.45977 -7.40178,12.19461 -4e-5,6.73508 3.31412,12.19501 7.40178,12.19512 4.08783,2.5e-4 7.40129,-5.45982 7.40126,-12.19512 -1.9e-4,-6.73509 -3.31358,-12.19483 -7.40126,-12.19461 z m 0.13283,4.47932 c 2.58729,0.01 4.54876,3.55295 4.5822,7.68377 0.0296,3.65221 -2.06807,7.72412 -4.69842,7.83621 -2.51003,4e-5 -4.76497,-3.70748 -4.72853,-7.96592 0.0346,-4.04004 2.41131,-7.56268 4.84475,-7.55406 z m -0.0721,1.21491 c -0.35052,0.0145 -0.63195,0.48128 -0.632,1.05523 -4e-5,0.58317 0.29082,1.05577 0.64913,1.05575 0.35826,2e-5 0.64862,-0.47258 0.64859,-1.05575 -6e-5,-0.58306 -0.29036,-1.05523 -0.64859,-1.05523 -0.007,0 -0.0116,-2.3e-4 -0.0172,0 z m -2.40552,1.65675 c -0.35825,0 -0.64852,0.47269 -0.64859,1.05575 -2e-5,0.58316 0.2903,1.05576 0.64859,1.05575 0.3583,1e-5 0.64863,-0.47259 0.6486,-1.05575 -4e-5,-0.58306 -0.29035,-1.05575 -0.6486,-1.05575 z m 4.70414,0.0217 c -0.3505,0.0148 -0.63194,0.49381 -0.63199,1.08211 -3e-5,0.5977 0.29031,1.08211 0.64859,1.0821 0.3583,1e-5 0.64915,-0.4844 0.64912,-1.0821 -6e-5,-0.59761 -0.29086,-1.08211 -0.64912,-1.08211 -0.005,0 -0.0109,-2.3e-4 -0.0166,0 z m -2.36297,2.02985 c -0.92903,0 -1.6821,1.27054 -1.6822,2.83807 -1.1e-4,1.56778 0.75301,2.83859 1.6822,2.83859 0.92919,0 1.68234,-1.27081 1.6822,-2.83859 -9e-5,-1.56753 -0.75315,-2.83807 -1.6822,-2.83807 z m 3.28605,1.81333 c -0.3505,0.0145 -0.63195,0.48178 -0.63199,1.05575 -2e-5,0.58315 0.2903,1.05627 0.6486,1.05626 0.35829,1e-5 0.64863,-0.47311 0.64859,-1.05626 -4e-5,-0.58307 -0.29035,-1.05575 -0.64859,-1.05575 -0.005,0 -0.011,-2.4e-4 -0.0166,0 z m -6.59441,0.032 c -0.35824,0 -0.64905,0.4727 -0.64911,1.05575 -2e-5,0.58316 0.29084,1.05576 0.64911,1.05575 0.35831,1e-5 0.64864,-0.47259 0.64861,-1.05575 -7e-5,-0.58305 -0.29035,-1.05575 -0.64861,-1.05575 z m 0.91427,3.78478 c -0.35027,0.0149 -0.63195,0.48156 -0.632,1.05523 -3e-5,0.58314 0.29084,1.05628 0.64913,1.05627 0.3583,1e-5 0.64864,-0.47313 0.64859,-1.05627 -4e-5,-0.58306 -0.29035,-1.05523 -0.64859,-1.05523 -0.005,0 -0.0111,-2e-4 -0.0166,0 z m 4.7415,0.062 c -0.35825,0 -0.64856,0.47269 -0.6486,1.05575 -2e-5,0.58315 0.29032,1.05628 0.6486,1.05627 0.3583,1e-5 0.64862,-0.47312 0.64859,-1.05627 -6e-5,-0.58306 -0.29034,-1.05575 -0.64859,-1.05575 z m -2.29759,1.54409 c -0.35051,0.0145 -0.63195,0.48179 -0.632,1.05575 -4e-5,0.58314 0.29032,1.05576 0.6486,1.05575 0.35831,1e-5 0.64914,-0.47261 0.64912,-1.05575 -6e-5,-0.58307 -0.29086,-1.05575 -0.64912,-1.05575 -0.005,0 -0.0109,-2.4e-4 -0.0166,0 z" /></g><g
       id="layer1"
       transform="matrix(0.0609286,0,0,0.07216385,132.2048,61.252907)"><path
         d="m 219.45319,125.42223 -13.75922,-26.817464 14.57237,0.652551 c 0,0 17.8493,0.666389 18.64946,1.336383 l 2.22274,8.47495 4.01174,-0.0869 2.12158,-8.60031 c 7.35166,-2.848656 12.92551,-1.758906 12.92551,-1.758906 l -1.09895,25.151246 c -0.52967,3.001 -10.80736,6.65153 -17.61036,6.77092 -10.75661,0.0363 -20.33304,-1.78004 -22.03487,-5.12251 z"
         style="display:inline;fill:url(#linearGradient6447);fill-opacity:1;stroke-width:0.264583"
         id="path6312-1-3"
         transform="matrix(0.75131481,0,0,0.75131481,109.93911,-29.778502)" /><path
         id="path8445"
         style="display:inline;fill:url(#linearGradient8459);fill-opacity:1;stroke-width:0.0117421"
         d="m 151.26667,66.041326 c -0.09,2.42e-4 -0.28911,-0.0097 -0.58341,0.108975 l -0.0985,0.526217 c -0.0526,0.01953 -0.11276,0.02128 -0.18186,0.0022 l -0.11359,-0.507312 c -0.0556,-0.02223 -0.38691,-0.06498 -0.87384,-0.100576 l -0.93652,-0.06277 0.78561,1.690739 c 0.0886,0.207976 0.50331,0.326059 1.12946,0.323844 0.35681,4.84e-4 0.93561,-0.212006 0.94264,-0.403786 0.0226,-0.683542 0.0257,-0.936999 0.0384,-1.570216 0,0 -0.0909,-0.0068 -0.10833,-0.0073 z m 0.029,0.0523 c 0.0258,7.9e-5 0.039,0.002 0.039,0.002 l -0.002,0.04199 c -0.027,0.02212 -0.054,0.04437 -0.081,0.06649 -0.0304,-0.02877 -0.0597,-0.05584 -0.10698,-0.09598 6.8e-4,-6.59e-4 9.7e-4,-0.0014 0.002,-0.002 0.0668,-0.0093 0.11802,-0.0126 0.14898,-0.0125 z m -0.23396,0.02699 c -0.0281,0.02711 -0.0574,0.05413 -0.086,0.08049 -0.016,-0.01293 -0.0341,-0.02714 -0.0525,-0.04199 0.002,-0.0024 0.005,-0.005 0.007,-0.0075 0.0479,-0.01279 0.0919,-0.0233 0.13148,-0.03099 z m -2.4384,-0.02594 0.2396,0.03604 -0.0722,0.07715 -0.13085,-0.136169 -0.031,0.01776 0.1328,0.146244 -0.0505,0.03343 z m 2.48539,0.04844 c 0.0429,0.03437 0.0751,0.06204 0.10648,0.09049 -0.0338,0.02757 -0.0671,0.05545 -0.10098,0.08298 -0.0346,-0.0299 -0.0666,-0.05673 -0.10048,-0.08448 0.0318,-0.02928 0.0635,-0.05897 0.095,-0.08898 z m -2.12088,0.0015 0.0888,0.003 -0.0879,0.06949 c -0.023,-0.02093 -0.0825,-0.08009 -0.0825,-0.08009 z m 0.21023,0.0055 0.087,0.0015 -0.046,0.036 c -0.0138,-0.01272 -0.0273,-0.0249 -0.041,-0.0375 z m 0.15198,0.003 h 0.002 c 0.0182,8.37e-4 0.0346,0.0021 0.053,0.003 0.0117,0.0106 0.0225,0.0206 0.034,0.031 l -0.10748,0.08498 c -0.0205,-0.01866 -0.0408,-0.03756 -0.061,-0.05599 z m -0.21596,0.0015 c 0.0223,0.02079 0.0451,0.04219 0.0669,0.06248 l -0.11398,0.08849 c -0.0223,-0.01997 -0.0445,-0.03956 -0.066,-0.05899 z m 0.40192,0.0085 c 0.0589,0.0028 0.11347,0.0063 0.16997,0.0095 1.8e-4,1.66e-4 3.2e-4,3.35e-4 5e-4,5e-4 l -0.11098,0.08748 c -0.0296,-0.02596 -0.0545,-0.04836 -0.086,-0.07599 z m 1.31076,0.01199 c -0.0234,0.02422 -0.0485,0.04687 -0.0745,0.06849 -0.0126,-0.01013 -0.0254,-0.02007 -0.039,-0.03099 0.0401,-0.01441 0.0773,-0.02633 0.11348,-0.0375 z m -1.06631,0.0015 c 0.0543,0.0034 0.11232,0.0065 0.16048,0.0105 l -0.0775,0.06199 c -0.0269,-0.02341 -0.0545,-0.04776 -0.083,-0.07249 z m -0.89829,-0.0025 0.066,0.07079 -0.0629,0.06296 -0.0717,-0.07446 z m 1.11175,0.02297 c 0.03,0.03093 0.0583,0.05874 0.0865,0.08498 l -0.0935,0.07449 c -0.0302,-0.02646 -0.0595,-0.05211 -0.0915,-0.07998 z m 0.88834,0.0015 c 0.0172,0.01375 0.036,0.0286 0.0515,0.04099 -0.0263,0.02374 -0.0528,0.04684 -0.0795,0.06999 -0.0165,-0.01306 -0.0323,-0.02594 -0.0505,-0.04049 0.0264,-0.02205 0.0523,-0.04572 0.0785,-0.07048 z m -0.81435,0.002 c 0.0354,0.0044 0.0715,0.0083 0.098,0.0135 l -0.046,0.03649 c -0.0181,-0.01668 -0.0353,-0.03346 -0.0519,-0.04999 z m 1.26177,0 -0.004,0.07399 c -0.0141,-0.01332 -0.0286,-0.02718 -0.04,-0.03799 0.0145,-0.01197 0.029,-0.02402 0.0435,-0.036 z m -1.5927,9.67e-4 c 0.0289,0.02677 0.0587,0.05436 0.086,0.07949 l -0.10698,0.08549 c -0.028,-0.02458 -0.0583,-0.05196 -0.088,-0.07798 z m -0.26646,0.014 c 0.0281,0.0254 0.0576,0.05264 0.0845,0.07698 l -0.10747,0.08448 c -0.0282,-0.02523 -0.056,-0.0506 -0.0835,-0.07548 z m 0.74537,0.0105 c 0.0121,0.0038 0.0249,0.0078 0.032,0.012 l 0.0255,0.09198 -0.0325,0.02599 c -0.0323,-0.02675 -0.0619,-0.05252 -0.09,-0.07749 z m -0.98332,0.02 c 0.0205,0.0189 0.0408,0.03748 0.061,0.05599 l -0.11099,0.08849 c -0.0208,-0.01837 -0.0418,-0.03698 -0.062,-0.05499 z m 1.48523,0.0185 c 0.005,0.0039 0.009,0.0076 0.014,0.0115 -0.007,0.0052 -0.0139,0.01036 -0.021,0.0155 z m 0.5329,0.0015 c 0.0206,0.01919 0.046,0.04272 0.0729,0.06799 l -0.002,0.03899 c -0.0246,0.0209 -0.0489,0.04167 -0.0735,0.06248 -0.0372,-0.03388 -0.0693,-0.06263 -0.0975,-0.08748 0.0334,-0.02736 0.0667,-0.0546 0.1,-0.08199 z m -0.27896,0.004 c 0.0349,0.02813 0.0676,0.05411 0.1,0.08099 -0.0272,0.0221 -0.0547,0.04391 -0.082,0.06598 -0.0307,-0.02434 -0.0607,-0.04777 -0.0975,-0.07698 0.0266,-0.02317 0.0532,-0.04627 0.0795,-0.06999 z m -1.99163,0.0095 c 0.0213,0.01932 0.0428,0.03909 0.065,0.05899 l -0.0815,0.06349 c -0.0214,-0.01934 -0.0392,-0.04274 -0.0599,-0.06162 z m -0.19881,-0.02041 0.0686,0.07962 -0.0751,0.05466 -0.0489,-0.09076 z m 1.98248,0.04237 c 0.0174,0.01381 0.0351,0.02808 0.0519,0.04149 -0.0338,0.0288 -0.0676,0.05706 -0.10198,0.08498 -0.0102,-0.0082 -0.0198,-0.01636 -0.0305,-0.025 l 0.0125,-0.05149 c 0.0226,-0.01596 0.0456,-0.03239 0.068,-0.04999 z m -0.90983,0.008 5.1e-4,5e-4 c 0.0304,0.02789 0.0597,0.05524 0.0885,0.08148 l -0.10397,0.08249 c -0.0267,-0.02344 -0.0625,-0.05436 -0.0905,-0.07899 z m 0.25745,9.67e-4 c 0.0287,0.02583 0.0585,0.0511 0.09,0.07698 l -0.0945,0.07499 c -0.0285,-0.02511 -0.0589,-0.05152 -0.0885,-0.07749 z m -0.5244,0.0105 c 0.0303,0.02735 0.0583,0.05269 0.0875,0.07899 l -0.10648,0.08448 c -0.0294,-0.02608 -0.0586,-0.05218 -0.0874,-0.07798 z m -0.26095,0.011 c 0.0281,0.02571 0.0555,0.05046 0.083,0.07549 l -0.10948,0.08598 c -0.0282,-0.02463 -0.0561,-0.04936 -0.0835,-0.07348 z m -0.24745,0.03649 c 0.0202,0.01803 0.0412,0.03657 0.062,0.05499 l -0.0815,0.06449 c -0.0206,-0.01845 -0.0414,-0.03688 -0.0615,-0.05499 z m 1.77566,0.005 c 0.032,0.02543 0.0639,0.05064 0.0955,0.07599 -0.0349,0.02833 -0.0699,0.0567 -0.10498,0.08499 -0.0287,-0.02354 -0.0596,-0.04839 -0.093,-0.07549 0.0344,-0.02804 0.0686,-0.05647 0.10247,-0.08549 z m -1.98845,-0.0032 c 0.0204,0.01862 0.045,0.04462 0.0661,0.06371 l -0.1047,0.07599 -0.0368,-0.0733 z m 1.42056,0.0077 0.005,0.019 c -0.005,-0.0039 -0.01,-0.0076 -0.0145,-0.0115 z m 0.82235,0.0044 c 0.0307,0.02578 0.0636,0.05408 0.10049,0.08598 -0.0252,0.02134 -0.0507,0.04273 -0.076,0.06399 -0.0348,-0.02874 -0.0697,-0.05679 -0.10449,-0.08448 0.0267,-0.02176 0.0534,-0.04371 0.08,-0.06549 z m -0.87134,0.0345 c 0.0236,0.01896 0.049,0.03878 0.076,0.05999 l 0.007,0.02599 c -0.0287,0.02392 -0.0574,0.0477 -0.086,0.07149 -0.0305,-0.02682 -0.0617,-0.05388 -0.0925,-0.08099 z m -0.26295,0.003 c 0.0296,0.02691 0.0589,0.05282 0.0874,0.07848 l -0.10198,0.08148 c -0.0285,-0.02509 -0.0581,-0.05081 -0.0879,-0.07698 z m -0.26795,0.009 c 0.0296,0.02661 0.0602,0.05411 0.089,0.07998 l -0.10498,0.08349 c -0.0299,-0.02626 -0.0601,-0.05243 -0.0895,-0.07848 z m 1.6127,0.007 -0.003,0.06149 c -0.0115,-0.01055 -0.0229,-0.02084 -0.0335,-0.03049 0.0122,-0.01039 0.0244,-0.02059 0.0365,-0.03099 z m -1.87765,0.0015 c 0.0293,0.02664 0.0581,0.05252 0.087,0.07848 l -0.10599,0.08448 c -0.0299,-0.02588 -0.0598,-0.05153 -0.089,-0.07698 z m -0.26646,0.016 c 0.0271,0.02393 0.0551,0.04851 0.083,0.07299 l -0.0825,0.06499 c -0.0275,-0.0244 -0.0552,-0.04854 -0.0819,-0.07249 z m 1.49473,0.004 c 9.7e-4,9.66e-4 0.002,0.002 0.004,0.003 -0.002,0.0015 -0.004,0.003 -0.006,0.0044 z m -1.71269,0.0075 c 0.02,0.01808 0.0409,0.03655 0.0615,0.05499 l -0.074,0.05849 c -0.0204,-0.0186 -0.0403,-0.03708 -0.0605,-0.05549 z m 2.03163,0.0155 c 0.0342,0.02752 0.0686,0.05602 0.10449,0.08549 -0.035,0.02932 -0.0703,0.05831 -0.10549,0.08748 -0.0328,-0.02754 -0.0671,-0.05676 -0.10447,-0.08748 0.0352,-0.02858 0.0703,-0.05687 0.10547,-0.08549 z m -0.27694,0.011 h 4.9e-4 c 0.031,0.0251 0.0624,0.04977 0.093,0.07498 -0.0397,0.03196 -0.0792,0.06407 -0.11898,0.09598 -0.0195,-0.01568 -0.0351,-0.02822 -0.0565,-0.0455 l 0.0195,-0.07648 c 0.0209,-0.01614 0.0418,-0.03247 0.0625,-0.04899 z m 0.5329,0.0075 c 0.0209,0.01814 0.0442,0.03825 0.0685,0.05948 l -0.002,0.03399 c -0.0182,0.01554 -0.0361,0.03075 -0.054,0.04599 -0.0317,-0.02749 -0.0609,-0.05276 -0.0879,-0.07549 0.0251,-0.02121 0.0499,-0.04266 0.075,-0.06399 z m -1.14829,0.03049 c 0.031,0.02782 0.0618,0.05542 0.0925,0.08249 -0.0332,0.02753 -0.0659,0.05521 -0.099,0.08249 -0.0308,-0.02695 -0.0635,-0.05579 -0.095,-0.08348 z m -0.26845,0.0085 c 0.0291,0.0261 0.0586,0.05176 0.0874,0.07749 l -0.10398,0.08249 c -0.0293,-0.02547 -0.0585,-0.05113 -0.0875,-0.07648 z m -0.26646,0.008 c 0.0297,0.02671 0.0592,0.05288 0.0885,0.07899 l -0.10348,0.08199 c -0.0301,-0.02585 -0.0599,-0.05143 -0.0895,-0.07698 z m -0.5084,0.005 c 0.0268,0.02394 0.054,0.04854 0.0814,0.07299 l -0.075,0.05899 c -0.0268,-0.02426 -0.0536,-0.04848 -0.08,-0.07249 z m 1.28126,0.002 0.031,0.112979 c -0.005,0.0039 -0.009,0.0076 -0.0135,0.01149 -0.027,-0.02359 -0.054,-0.04723 -0.0805,-0.07048 0.0211,-0.0179 0.042,-0.03605 0.063,-0.05399 z m -1.0423,0.0035 c 0.0292,0.02547 0.059,0.05107 0.089,0.07698 l -0.083,0.06649 c -0.0296,-0.02603 -0.059,-0.05184 -0.0879,-0.07749 z m -0.45378,-0.008 c 0,0 0.0635,0.04914 0.0781,0.0626 l -0.0374,0.02612 z m 2.29243,0.04799 c 0.0285,0.02356 0.0582,0.04816 0.089,0.07399 -0.0359,0.03051 -0.0712,0.06057 -0.10598,0.08999 -0.0297,-0.02564 -0.059,-0.05104 -0.0885,-0.07599 0.0352,-0.02936 0.0703,-0.05841 0.10547,-0.08798 z m -0.28744,0.002 c 0.0348,0.02884 0.0697,0.05828 0.10498,0.08798 -0.0383,0.03171 -0.0766,0.06344 -0.11498,0.09499 -0.0314,-0.02545 -0.0714,-0.05797 -0.10798,-0.08748 0.0394,-0.03174 0.0787,-0.06369 0.11798,-0.09548 z m -1.90065,0.04149 c 0.0263,0.02414 0.0527,0.04866 0.0795,0.07299 l -0.0754,0.06137 -0.0518,-0.103905 z m 1.28377,0.005 c 0.0267,0.02344 0.0534,0.04705 0.0805,0.07048 -0.0324,0.02762 -0.0649,0.05549 -0.0975,0.08298 -0.0271,-0.02363 -0.0544,-0.04729 -0.0814,-0.07099 0.033,-0.0275 0.0657,-0.05485 0.0985,-0.08249 z m -0.27596,0.0015 c 0.0314,0.02798 0.0633,0.05647 0.095,0.08448 -0.0336,0.02761 -0.067,0.05522 -0.10048,0.08249 -0.0328,-0.0282 -0.0655,-0.05634 -0.098,-0.08448 z m -0.78085,0.008 c 0.029,0.0257 0.0583,0.05187 0.088,0.07798 l -0.076,0.06049 c -0.0294,-0.02636 -0.0585,-0.05235 -0.0875,-0.07848 z m 0.51341,0 c 0.0291,0.02585 0.0581,0.05109 0.087,0.07648 l -0.10098,0.08099 c -0.0296,-0.02522 -0.0587,-0.05043 -0.0879,-0.07548 z m 1.62569,9.67e-4 -9.7e-4,0.0265 c -0.005,-0.0045 -0.01,-0.0086 -0.015,-0.013 0.006,-0.0046 0.0105,-0.0088 0.016,-0.0135 z m -1.89314,0.008 c 0.0296,0.02553 0.0594,0.05115 0.0895,0.07698 l -0.0844,0.06699 c -0.0295,-0.0258 -0.0589,-0.05144 -0.0879,-0.07698 z m 1.20077,0.008 c 0.0109,0.0091 0.0186,0.01533 0.029,0.02399 -0.0474,0.03802 -0.095,0.07553 -0.14248,0.113479 -0.0372,-0.03213 -0.0733,-0.06334 -0.10848,-0.09398 0.0819,0.02329 0.14892,0.0221 0.21296,-0.0065 z m 0.63939,0.0295 c 0.0158,0.01334 0.0324,0.02741 0.0489,0.04149 l -0.004,0.08348 c -0.0192,0.01633 -0.0376,0.03285 -0.056,0.0485 -0.0336,-0.02953 -0.0653,-0.05716 -0.095,-0.08298 0.0343,-0.02931 0.0703,-0.05991 0.10599,-0.09049 z m -0.27045,0.017 c 0.0289,0.02449 0.0596,0.04999 0.0895,0.07549 -0.0377,0.03183 -0.0749,0.06323 -0.11148,0.09398 -0.0295,-0.02463 -0.0604,-0.04975 -0.092,-0.07549 0.0379,-0.03127 0.0761,-0.06247 0.11399,-0.09398 z m -0.30145,0.0095 c 0.0362,0.03014 0.0752,0.06276 0.10648,0.08898 -0.0474,0.0388 -0.0949,0.07792 -0.14247,0.116479 -0.0369,-0.03136 -0.0723,-0.06158 -0.10648,-0.09098 0.0477,-0.03814 0.095,-0.07626 0.14247,-0.114479 z m -1.6272,0.017 c 0.0288,0.02613 0.0583,0.0522 0.0875,0.07848 l -0.10247,0.08199 c -0.0187,-0.01705 -0.0376,-0.03521 -0.057,-0.05299 l -0.016,-0.03699 z m 1.28376,0 c 0.0383,0.033 0.0772,0.06633 0.11748,0.100481 -0.034,0.02713 -0.0679,0.0544 -0.10198,0.08148 -0.0373,-0.03249 -0.0756,-0.06582 -0.11198,-0.09748 0.0313,-0.02723 0.0635,-0.05545 0.0964,-0.08448 z m -0.5349,0.01799 c 0.0325,0.02848 0.065,0.05689 0.0975,0.08498 -0.0329,0.02675 -0.0653,0.05363 -0.098,0.07998 -0.0335,-0.02832 -0.0668,-0.05674 -0.1,-0.08498 z m -0.5134,5e-4 c 0.0289,0.02545 0.058,0.05127 0.0874,0.07698 l -0.077,0.06149 c -0.0289,-0.0258 -0.0579,-0.05133 -0.0865,-0.07698 z m 0.79135,0.002 c 0.0268,0.02361 0.0541,0.047 0.0814,0.07099 -0.0326,0.02743 -0.0653,0.05469 -0.098,0.08199 -0.0279,-0.0237 -0.0553,-0.04776 -0.083,-0.07149 0.0331,-0.02717 0.0666,-0.05416 0.0995,-0.08148 z m -0.5439,0.005 c 0.029,0.02489 0.058,0.04993 0.0875,0.07498 l -0.0855,0.06849 c -0.029,-0.02521 -0.0577,-0.05042 -0.0865,-0.07549 z m 1.57171,0.05449 c 0.0307,0.02618 0.0633,0.05436 0.0955,0.08199 -0.0388,0.03298 -0.0758,0.06431 -0.11148,0.09448 -0.0327,-0.02879 -0.0642,-0.05593 -0.095,-0.08199 0.0364,-0.03086 0.0733,-0.06234 0.11098,-0.09448 z m -0.28344,0.0235 c 0.0319,0.0268 0.0621,0.0521 0.0915,0.07698 -0.0478,0.04003 -0.0953,0.07879 -0.14197,0.117478 -0.0318,-0.02674 -0.0623,-0.05285 -0.092,-0.07799 0.0476,-0.03865 0.095,-0.0775 0.14248,-0.116479 z m -1.6487,0.0065 c 0.0285,0.0256 0.0572,0.0513 0.086,0.07699 l -0.10348,0.08198 c -0.0276,-0.02475 -0.0555,-0.05069 -0.0845,-0.07698 z m 1.02081,0.0125 c 0.036,0.03144 0.0728,0.06333 0.11047,0.09598 -0.0327,0.02591 -0.0657,0.05161 -0.0985,0.07749 -0.0361,-0.03037 -0.0721,-0.06048 -0.10797,-0.09098 0.0313,-0.02661 0.0631,-0.05406 0.096,-0.08249 z m -0.78536,0.0035 c 0.0286,0.02497 0.0576,0.04988 0.0865,0.07499 l -0.0785,0.06249 c -0.0285,-0.02528 -0.0572,-0.05027 -0.0855,-0.07549 z m 0.24896,0.0055 c 0.0332,0.02821 0.0661,0.0567 0.0995,0.08498 -0.029,0.02333 -0.0581,0.04652 -0.087,0.06949 -0.033,-0.02849 -0.0657,-0.05705 -0.0985,-0.08549 z m 0.83335,0.0015 c 0.0346,0.02919 0.0704,0.0596 0.10747,0.09048 -0.0347,0.02805 -0.0693,0.05606 -0.10397,0.08399 -0.0366,-0.03163 -0.0719,-0.0624 -0.10649,-0.09248 0.0342,-0.02725 0.0688,-0.05469 0.10299,-0.08199 z m -0.5549,0.0035 c 0.0278,0.02393 0.0556,0.0477 0.0835,0.07149 -0.032,0.02661 -0.0639,0.05352 -0.096,0.07998 -0.0285,-0.02406 -0.057,-0.04789 -0.0855,-0.07198 0.0329,-0.02649 0.0654,-0.05285 0.098,-0.07949 z m 1.35625,0.0085 -0.002,0.031 c -0.006,-0.0051 -0.0113,-0.01 -0.017,-0.01499 0.006,-0.0053 0.0122,-0.01058 0.0185,-0.016 z m -0.0555,0.04749 c 0.0171,0.01469 0.0333,0.02882 0.051,0.04399 l -0.004,0.08298 c -0.0223,0.01908 -0.0444,0.03749 -0.065,0.05499 -0.0338,-0.031 -0.0651,-0.06024 -0.0945,-0.08648 0.0353,-0.03013 0.0731,-0.06215 0.11198,-0.09548 z m -0.28645,0.01949 c 0.0309,0.02623 0.0636,0.05435 0.0955,0.08148 -0.0489,0.04121 -0.0955,0.07987 -0.13998,0.116979 -0.0334,-0.02772 -0.0649,-0.05402 -0.096,-0.07998 0.0462,-0.03867 0.0929,-0.07816 0.14048,-0.118479 z m -1.65669,0.006 c 0.0283,0.02527 0.0569,0.05019 0.0855,0.07549 l -0.10349,0.08249 c -0.0277,-0.02441 -0.0556,-0.04968 -0.0845,-0.07549 z m -0.25795,0.0025 c 0.0291,0.02681 0.0572,0.0521 0.0845,0.07698 l -0.045,0.036 -0.046,-0.107481 z m 0.4954,0.01199 c 0.0328,0.0284 0.0655,0.05705 0.0985,0.08549 -0.0266,0.02109 -0.053,0.04225 -0.0795,0.06299 -0.0325,-0.0286 -0.0651,-0.05688 -0.0975,-0.08549 z m 0.52591,0.0075 c 0.0351,0.02985 0.0704,0.05963 0.10598,0.08948 -0.0327,0.02579 -0.0652,0.05173 -0.098,0.07749 -0.0347,-0.0291 -0.0692,-0.05818 -0.10397,-0.08748 0.0311,-0.02582 0.0633,-0.05192 0.096,-0.07949 z m -0.26046,0.0095 c 0.0284,0.02407 0.057,0.04797 0.0855,0.07198 -0.0291,0.02383 -0.0582,0.04779 -0.0874,0.07149 -0.0285,-0.02451 -0.057,-0.04891 -0.0855,-0.07348 0.0293,-0.02317 0.0584,-0.04669 0.0874,-0.06999 z m 0.5459,0.002 c 0.0346,0.02989 0.0704,0.06061 0.10699,0.09199 -0.0318,0.0255 -0.0637,0.05109 -0.0955,0.07648 -0.0363,-0.03019 -0.0727,-0.06054 -0.10898,-0.09098 0.0326,-0.02578 0.0649,-0.05167 0.0975,-0.07749 z m 0.29395,0.0035 c 0.0301,0.025 0.0618,0.05046 0.0939,0.07698 -0.0355,0.0294 -0.0707,0.05857 -0.10598,0.08748 -0.0319,-0.02747 -0.0624,-0.054 -0.0925,-0.07998 0.0348,-0.028 0.0697,-0.05632 0.10448,-0.08448 z m 0.44592,0.06949 c 0.0294,0.02518 0.0644,0.05513 0.0975,0.08348 -0.0505,0.04284 -0.096,0.08113 -0.13697,0.115479 -0.0343,-0.02822 -0.067,-0.05553 -0.099,-0.08199 l 4.9e-4,-5.01e-4 c 0.0433,-0.03645 0.0895,-0.07521 0.13798,-0.116478 z m -1.6672,9.67e-4 c 0.032,0.02832 0.0642,0.05671 0.0965,0.08498 -0.0348,0.02715 -0.0695,0.05405 -0.10398,0.08049 -0.0312,-0.027 -0.0631,-0.0546 -0.0955,-0.08298 z m -0.25995,0.004 c 0.0288,0.02613 0.0573,0.05118 0.0845,0.07548 l -0.1,0.07949 -0.0455,-0.10598 z m 0.51341,0.022 c 0.0287,0.02477 0.0577,0.04929 0.0865,0.07398 -0.0267,0.02157 -0.0537,0.04303 -0.0805,0.06449 -0.0289,-0.02524 -0.0576,-0.05068 -0.0865,-0.07599 0.0268,-0.02088 0.0538,-0.0415 0.0805,-0.06249 z m 0.25145,0.002 c 0.0344,0.02894 0.0688,0.05778 0.10299,0.08648 -0.0302,0.02367 -0.0603,0.04734 -0.0905,0.07099 -0.0334,-0.02855 -0.0665,-0.05722 -0.1,-0.08598 0.0286,-0.02315 0.0576,-0.04699 0.0874,-0.07149 z m 0.28244,0.0085 c 0.0362,0.0302 0.0726,0.06054 0.10949,0.09098 -0.0329,0.02615 -0.0655,0.05243 -0.0985,0.07848 -0.0365,-0.03041 -0.0727,-0.06116 -0.10948,-0.09198 0.0329,-0.02585 0.0657,-0.0516 0.0985,-0.07749 z m 0.56691,0.0025 c 0.0297,0.02442 0.0652,0.053 0.097,0.07899 -0.0372,0.03094 -0.0735,0.06086 -0.10899,0.08999 -0.0311,-0.02674 -0.0647,-0.05529 -0.0939,-0.08049 0.0351,-0.02911 0.0704,-0.05874 0.10599,-0.08849 z m -0.28295,0.011 c 0.0303,0.02595 0.0621,0.05277 0.0939,0.07998 -0.0308,0.02517 -0.0616,0.05048 -0.0925,0.07548 -0.0321,-0.02637 -0.0643,-0.05333 -0.0964,-0.07998 0.0316,-0.02519 0.0634,-0.05018 0.095,-0.07548 z m 0.79485,0.007 -0.003,0.04699 c -0.009,-0.0081 -0.0165,-0.01569 -0.025,-0.0235 0.009,-0.0078 0.018,-0.01532 0.0275,-0.0235 z m -2.00563,0.05449 c 0.0322,0.02853 0.0634,0.05639 0.094,0.08298 -0.0346,0.02636 -0.0688,0.05243 -0.10299,0.07798 -0.0283,-0.02431 -0.0601,-0.05227 -0.092,-0.07998 z m 1.94015,0.0015 c 0.0201,0.01731 0.0383,0.03249 0.0605,0.05149 l -0.003,0.05149 c -0.0377,0.03215 -0.0718,0.0609 -0.10248,0.08699 -0.0315,-0.02572 -0.0618,-0.05017 -0.0915,-0.07449 0.0405,-0.03433 0.0851,-0.07194 0.13597,-0.115479 z m -1.6662,0.0055 c 0.029,0.02538 0.0579,0.0507 0.087,0.07599 -0.0338,0.02687 -0.0675,0.05381 -0.10149,0.08049 -0.0297,-0.02519 -0.0593,-0.05107 -0.0895,-0.07698 0.0348,-0.02646 0.0694,-0.05283 0.10398,-0.07949 z m 0.24296,0.0135 c 0.0333,0.02851 0.0664,0.05673 0.0995,0.08499 -0.0276,0.02153 -0.0553,0.04298 -0.083,0.06449 -0.0325,-0.02818 -0.0649,-0.05663 -0.0975,-0.08498 0.0264,-0.02097 0.0537,-0.04254 0.081,-0.06449 z m 0.26944,0.01499 c 0.0371,0.03108 0.0733,0.06138 0.10998,0.09198 -0.0306,0.02415 -0.0618,0.04792 -0.0925,0.07198 -0.0362,-0.03081 -0.0719,-0.06123 -0.10848,-0.09248 0.0304,-0.02368 0.0607,-0.04777 0.091,-0.07149 z m 0.84235,0.002 c 0.0336,0.0274 0.0634,0.05211 0.0995,0.08148 -0.0406,0.03389 -0.0781,0.06537 -0.11198,0.09298 h -4.9e-4 c -0.0341,-0.02913 -0.0646,-0.05569 -0.0965,-0.08298 0.0353,-0.02914 0.0719,-0.05996 0.10948,-0.09149 z m -0.5544,0.01 c 0.0319,0.02627 0.0643,0.05286 0.097,0.07949 -0.0328,0.02652 -0.0659,0.05294 -0.099,0.07949 -0.0322,-0.02678 -0.0642,-0.05373 -0.097,-0.08098 0.0329,-0.026 0.0661,-0.05186 0.099,-0.07799 z m 0.26946,0.0045 c 0.0292,0.0249 0.0637,0.05387 0.0945,0.07998 -0.0302,0.02468 -0.0601,0.04934 -0.09,0.07348 -0.0318,-0.02583 -0.0635,-0.05229 -0.0955,-0.07848 0.0304,-0.02485 0.0606,-0.0499 0.091,-0.07499 z m -0.94583,0.06299 c 0.0325,0.02829 0.065,0.05639 0.0975,0.08448 -0.0333,0.02583 -0.0667,0.0517 -0.1,0.07749 -0.0329,-0.02737 -0.0658,-0.05498 -0.0985,-0.08249 0.0332,-0.02583 0.0668,-0.05252 0.10099,-0.07948 z m -0.26595,4.99e-4 c 0.0304,0.02617 0.0605,0.05195 0.09,0.07698 -0.0338,0.02636 -0.0676,0.05283 -0.10149,0.07899 -0.0283,-0.02394 -0.0599,-0.05097 -0.092,-0.07848 0.0346,-0.0257 0.0692,-0.05157 0.10348,-0.07749 z m 0.52289,0.023 c 0.0369,0.03142 0.0726,0.06158 0.10899,0.09248 -0.028,0.02194 -0.0559,0.04361 -0.084,0.06549 -0.0361,-0.03101 -0.0723,-0.06213 -0.10847,-0.09349 0.0279,-0.02158 0.0557,-0.04288 0.0835,-0.06448 z m 1.11081,0.011 c 0.0284,0.0231 0.0613,0.05005 0.0915,0.07449 -0.0452,0.03838 -0.0824,0.07007 -0.11397,0.09649 -0.0292,-0.02491 -0.0624,-0.0534 -0.09,-0.07698 0.0337,-0.02777 0.0703,-0.05841 0.11249,-0.09398 z m -1.85716,0.0025 c 0.014,0.01277 0.0292,0.02652 0.0425,0.03849 -0.007,0.0049 -0.0135,0.0097 -0.02,0.0145 z m 1.02531,0.0065 c 0.0327,0.02729 0.0648,0.05425 0.097,0.08099 -0.0307,0.02447 -0.0613,0.04932 -0.0925,0.07398 -0.0319,-0.02699 -0.0646,-0.05448 -0.097,-0.08199 0.031,-0.02425 0.0615,-0.04864 0.0925,-0.07299 z m 0.27795,0.0015 c 0.0316,0.0257 0.0639,0.05181 0.0964,0.07799 -0.0334,0.02679 -0.0672,0.05336 -0.10148,0.08049 -0.0311,-0.02578 -0.0622,-0.05208 -0.0939,-0.07848 0.0331,-0.02671 0.0663,-0.05328 0.099,-0.07998 z m 0.26445,0.004 c 0.0323,0.0274 0.0628,0.05359 0.097,0.08249 -0.0304,0.0245 -0.0593,0.04742 -0.0874,0.06949 -0.0327,-0.0262 -0.0655,-0.0528 -0.0985,-0.07949 0.0294,-0.02384 0.0591,-0.04792 0.089,-0.07249 z m 0.5189,0.0035 -0.005,0.101482 c -0.0201,-0.01631 -0.0392,-0.03173 -0.0585,-0.04749 0.021,-0.018 0.0388,-0.03317 0.063,-0.05399 z m -2.00763,0.05599 c 0.0322,0.02888 0.0622,0.05568 0.0905,0.08049 -0.0245,0.0188 -0.0489,0.0378 -0.0735,0.05649 -0.004,-0.0037 -0.008,-0.0073 -0.012,-0.011 l -0.042,-0.09898 c 0.0124,-0.0091 0.0247,-0.01792 0.0369,-0.027 z m 0.27145,5.01e-4 c 0.0328,0.02765 0.0656,0.05517 0.0985,0.08249 -0.0337,0.02595 -0.0672,0.05207 -0.10098,0.07799 -0.0312,-0.02559 -0.0653,-0.05379 -0.0995,-0.08249 0.0337,-0.02593 0.0678,-0.05151 0.10198,-0.07799 z m 0.27445,0.0085 c 0.0364,0.03135 0.0728,0.06247 0.10899,0.09349 -0.0322,0.02506 -0.0642,0.0505 -0.0965,0.07549 -0.0376,-0.03099 -0.0751,-0.06229 -0.11148,-0.09248 0.0331,-0.0255 0.066,-0.05094 0.099,-0.07648 z m 1.36075,0.0215 c 0.0314,0.02547 0.0602,0.04848 0.0934,0.07549 l -5.1e-4,0.0115 c -0.038,0.03514 -0.0727,0.06632 -0.10698,0.09598 -0.0347,-0.0296 -0.0678,-0.05766 -0.10048,-0.08549 0.0297,-0.02524 0.0724,-0.06139 0.11448,-0.09748 z m -1.0928,0.0085 c 0.0325,0.02755 0.0651,0.05552 0.097,0.08249 -0.0279,0.02198 -0.0556,0.04422 -0.084,0.06649 -0.0321,-0.02742 -0.0651,-0.05518 -0.0975,-0.08298 0.0282,-0.02189 0.0564,-0.04402 0.0845,-0.06599 z m 0.5459,0.0065 c 0.0321,0.02579 0.0649,0.05211 0.098,0.07848 -0.0341,0.02633 -0.0686,0.05307 -0.10548,0.08099 -0.031,-0.02572 -0.0625,-0.05145 -0.0945,-0.07799 0.0345,-0.02731 0.0685,-0.05455 0.10198,-0.08148 z m -0.27544,0.0045 c 0.0326,0.02712 0.0617,0.0516 0.0934,0.07798 -0.0307,0.02417 -0.0622,0.04881 -0.0945,0.07399 -0.0309,-0.02599 -0.0605,-0.05135 -0.092,-0.07799 0.0312,-0.02487 0.0623,-0.04935 0.093,-0.07399 z m 0.53889,0.005 c 0.028,0.02357 0.0617,0.05185 0.0909,0.07648 -0.0332,0.0275 -0.0599,0.04918 -0.0825,0.06699 -0.031,-0.02451 -0.0626,-0.04943 -0.0939,-0.07449 0.027,-0.02124 0.0552,-0.04439 0.0855,-0.06898 z m -1.49672,0.05699 c 0.0344,0.02982 0.0668,0.05716 0.098,0.08298 -0.0263,0.02018 -0.0526,0.04034 -0.0789,0.06049 -0.0302,-0.02718 -0.0609,-0.05559 -0.0934,-0.08598 0.0249,-0.01916 0.0496,-0.03838 0.0745,-0.05749 z m 0.28245,0.003 c 0.0363,0.02995 0.0737,0.06103 0.11148,0.09198 -0.0329,0.02544 -0.0661,0.05061 -0.099,0.07599 -0.0389,-0.03052 -0.0763,-0.06006 -0.11399,-0.09048 0.0339,-0.02589 0.0677,-0.05155 0.10149,-0.07749 z m 0.28295,0.01949 c 0.0325,0.02781 0.0647,0.05555 0.097,0.08298 -0.0309,0.02412 -0.0623,0.04838 -0.0939,0.07299 -0.0339,-0.02778 -0.0666,-0.05493 -0.099,-0.08148 0.0321,-0.02485 0.0639,-0.04955 0.096,-0.07449 z m 0.80485,0.02099 c 0.0309,0.02448 0.0627,0.0494 0.0945,0.07449 -0.0324,0.02431 -0.0639,0.04688 -0.11099,0.08099 -0.0296,-0.02448 -0.0592,-0.04902 -0.09,-0.07449 0.0375,-0.02827 0.0725,-0.05464 0.10648,-0.08099 z m -0.5454,5.01e-4 c 0.0317,0.02677 0.061,0.05146 0.092,0.07749 -0.0277,0.02151 -0.0566,0.0433 -0.086,0.06598 -0.0299,-0.02531 -0.0598,-0.05127 -0.09,-0.07698 0.0283,-0.02233 0.0563,-0.0445 0.084,-0.06649 z m 0.26495,0.004 c 0.0333,0.02764 0.0608,0.05038 0.093,0.07698 -0.0302,0.02276 -0.0615,0.04634 -0.097,0.07299 -0.0295,-0.02471 -0.0602,-0.05051 -0.0905,-0.07599 0.0326,-0.02536 0.0639,-0.04989 0.0945,-0.07398 z m 0.5354,0.0025 c 0.033,0.02779 0.0662,0.05575 0.10098,0.08498 -0.0251,0.02101 -0.0507,0.04165 -0.078,0.06299 -0.0342,-0.02657 -0.0687,-0.05361 -0.10348,-0.08099 0.0207,-0.01669 0.0468,-0.03858 0.0805,-0.06699 z m 0.24495,0.01799 -5e-4,0.0145 c -0.002,0.02356 -0.0179,0.04818 -0.0405,0.07249 -0.0103,-0.0088 -0.0184,-0.01588 -0.0285,-0.02449 l 5e-4,-5e-4 c 0.0217,-0.01904 0.0445,-0.03958 0.069,-0.06199 z m -1.73368,0.04649 c 0.038,0.03086 0.0755,0.06021 0.11448,0.08998 -0.0282,0.02173 -0.0567,0.04332 -0.085,0.06499 -0.0383,-0.0312 -0.0742,-0.06195 -0.10998,-0.09349 0.0269,-0.02043 0.0537,-0.04103 0.0805,-0.06149 z m 0.29545,0.011 c 0.0321,0.02627 0.0654,0.05359 0.0995,0.08148 -0.031,0.02409 -0.063,0.04831 -0.095,0.07299 -0.0362,-0.02778 -0.0706,-0.05415 -0.10249,-0.07899 0.0326,-0.0251 0.0654,-0.0503 0.098,-0.07548 z m -0.50391,0.004 c 0.0163,0.01605 0.0324,0.03118 0.048,0.04599 -0.007,0.0051 -0.0132,0.01038 -0.02,0.0155 -0.008,-0.013 -0.0147,-0.02668 -0.019,-0.04099 z m 0.77536,0.01 c 0.0303,0.02572 0.0605,0.05116 0.0905,0.07648 -0.0297,0.02287 -0.0608,0.04659 -0.0925,0.07099 -0.0316,-0.02596 -0.061,-0.0499 -0.091,-0.07449 0.0315,-0.02453 0.0624,-0.04901 0.093,-0.07299 z m 0.80085,0.0095 c 0.0336,0.02649 0.0682,0.05372 0.10298,0.08099 -0.034,0.02587 -0.0717,0.05315 -0.11398,0.08349 -0.0326,-0.02698 -0.0674,-0.05535 -0.10198,-0.08399 0.0525,-0.0376 0.081,-0.05633 0.11298,-0.08049 z m -0.54939,0.0035 c 0.0301,0.02527 0.0608,0.0516 0.09,0.07599 -0.0278,0.0209 -0.0549,0.0413 -0.087,0.06549 -0.0294,-0.02471 -0.0591,-0.04978 -0.089,-0.07498 0.0297,-0.02289 0.0583,-0.04504 0.086,-0.06649 z m 0.26594,0.0035 c 0.0304,0.02513 0.0606,0.04999 0.0895,0.07398 -0.0271,0.0198 -0.0608,0.04406 -0.099,0.07249 -0.0297,-0.02472 -0.0573,-0.04776 -0.0879,-0.07348 0.0366,-0.02742 0.0674,-0.05049 0.0975,-0.07299 z m 0.54041,0.0085 c 0.0102,0.0086 0.019,0.01572 0.0295,0.02449 -0.0236,0.01867 -0.0517,0.03657 -0.0835,0.05449 -0.008,-0.0058 -0.015,-0.0117 -0.0225,-0.0175 0.0273,-0.02095 0.052,-0.0409 0.0765,-0.06149 z m -1.74918,0.04449 c 0.0355,0.03246 0.0713,0.06282 0.11098,0.09348 -0.003,0.0023 -0.006,0.0046 -0.009,0.007 -0.0515,-0.02314 -0.0968,-0.04946 -0.12798,-0.08099 0.009,-0.0066 0.0174,-0.01295 0.026,-0.01949 z m 0.27845,0.02549 c 0.0323,0.02429 0.0677,0.05062 0.10448,0.07749 -0.0261,0.02008 -0.0531,0.04044 -0.08,0.06099 -0.008,-0.0018 -0.0157,-0.0036 -0.0235,-0.0055 -0.0308,-0.02311 -0.0599,-0.04551 -0.087,-0.06699 0.0286,-0.02196 0.0574,-0.04398 0.086,-0.06598 z m 0.28294,0.007 c 0.03,0.02448 0.059,0.04772 0.091,0.07398 -0.0289,0.02216 -0.0601,0.04584 -0.091,0.06949 -0.033,-0.02519 -0.065,-0.04932 -0.0939,-0.07149 0.0316,-0.02441 0.0635,-0.04824 0.0939,-0.07198 z m 0.25795,0.0065 c 0.0297,0.02499 0.0592,0.04997 0.0885,0.07449 -0.0287,0.02172 -0.0589,0.04473 -0.0915,0.06949 -0.0299,-0.02464 -0.0607,-0.0502 -0.089,-0.07348 0.0312,-0.02393 0.0632,-0.04826 0.092,-0.07048 z m 0.81135,0.0095 c 0.006,0.0043 0.0105,0.0082 0.016,0.0125 -0.0281,0.0138 -0.0579,0.02727 -0.089,0.03999 0.0266,-0.01879 0.051,-0.03622 0.0729,-0.05249 z m -0.55989,0.0025 c 0.0308,0.02575 0.058,0.04844 0.0874,0.07299 -0.0264,0.01975 -0.0548,0.04116 -0.087,0.06549 -0.0289,-0.02412 -0.0585,-0.04828 -0.088,-0.07299 0.0314,-0.0237 0.0607,-0.04533 0.0874,-0.06549 z m 0.26495,9.67e-4 c 0.0321,0.02663 0.0714,0.05908 0.10149,0.08399 -0.008,0.0055 -0.0159,0.01174 -0.024,0.0175 -0.0356,0.01112 -0.0713,0.02008 -0.10698,0.02899 -0.0221,-0.0184 -0.046,-0.03837 -0.069,-0.05749 0.0398,-0.02977 0.0714,-0.05328 0.0985,-0.07299 z m -0.90833,0.08349 c 0.0283,0.02058 0.0602,0.04317 0.0925,0.06649 -0.051,-0.0061 -0.10058,-0.01407 -0.14897,-0.02299 0.0191,-0.01456 0.0379,-0.0292 0.0565,-0.04349 z m 0.26295,0.0025 c 0.0285,0.02345 0.0585,0.04833 0.089,0.07348 -0.004,0.0032 -0.009,0.0063 -0.0125,0.0095 -0.0535,-0.0024 -0.10698,-0.006 -0.16147,-0.011 -0.002,-0.0012 -0.003,-0.0023 -0.005,-0.0035 0.0314,-0.02401 0.0604,-0.0462 0.0895,-0.06849 z m 0.25546,0.007 c 0.0295,0.02471 0.0589,0.04883 0.0879,0.07299 -0.003,0.0023 -0.006,0.0046 -0.009,0.007 -0.003,2.6e-5 -0.006,5.06e-4 -0.009,5e-4 -0.0467,7.63e-4 -0.097,5.75e-4 -0.14898,-5e-4 -0.005,-0.0037 -0.009,-0.0069 -0.013,-0.0105 0.0325,-0.02478 0.0631,-0.04798 0.0915,-0.06949 z m 0.25045,0.0105 c 0.0163,0.01359 0.0337,0.02833 0.0495,0.04149 -0.0463,0.0098 -0.0908,0.01677 -0.13297,0.0215 0.0304,-0.02306 0.0584,-0.0442 0.0835,-0.06299 z"
         transform="matrix(14.539024,0,0,12.27543,-1895.4249,-766.56296)" /></g><g
       id="layer4"
       transform="translate(-0.06614583,-0.16536458)"><g
         id="layer5"
         transform="translate(0.06614583,0.16536458)"><path
           id="path13201-2-6"
           style="opacity:0.462222;fill:#0b0b0b;stroke-width:0.012138;filter:url(#filter12023-8-5-3-7)"
           d="m 142.59956,68.113672 -0.0145,1.955953 c -0.0114,0.661529 -1.09902,0.681376 -1.10433,0.01809 l -0.01,-1.938383 -0.48421,-0.0021 0.015,1.939933 c 0.0135,0.39076 0.32706,0.880345 0.72347,0.879016 l 0.58756,0.0021 c 0.37858,-0.0154 0.73078,-0.468713 0.72812,-0.859896 l 0.007,-1.975073 z m 3.71106,0.268201 -1.62591,0.0062 -0.004,0.321427 0.65778,0.02426 -0.004,1.904955 0.37669,0.0038 0.005,-1.908572 0.59653,-0.02461 z m -0.16502,0.610815 -0.005,1.58905 0.28681,0.0047 0.006,-0.60048 h 0.14624 l 0.50333,0.595829 0.3173,0.0067 -0.52297,-0.684196 c 0.0727,-0.0565 0.28105,-0.125834 0.27905,-0.463021 -0.009,-0.312865 -0.30723,-0.4256 -0.48679,-0.4439 z m 3.39049,0.02739 c -0.42142,0.0156 -0.71836,0.20753 -0.74776,0.80977 -0.006,0.616746 0.35433,0.796118 0.65785,0.802018 0.18287,-0.0046 0.36282,-0.04684 0.5364,-0.140043 l -0.003,-0.30024 c -0.26136,0.169971 -0.36143,0.20628 -0.55346,0.17725 -0.2469,-0.04752 -0.36287,-0.177977 -0.36587,-0.545186 0.0132,-0.369171 0.14171,-0.498081 0.38603,-0.550871 0.18266,-0.03537 0.33854,0.0623 0.53536,0.206706 l 0.002,-0.296623 c -0.14622,-0.07331 -0.30729,-0.162443 -0.44752,-0.162781 z m -0.97151,0.02791 -0.27079,0.0015 -0.0114,1.117245 c -0.007,0.266057 -0.5487,0.271018 -0.5612,0.0083 l 0.006,-1.121896 -0.27388,0.0016 0.001,1.124996 c 0.002,0.239875 0.22859,0.442169 0.53898,0.441833 0.31309,-0.0083 0.54018,-0.19198 0.55708,-0.438216 z m 2.54041,0.03772 -0.58395,0.622701 -0.006,-0.615467 -0.25424,-0.0041 -0.015,1.510502 0.27647,-5.16e-4 0.0134,-0.591696 0.0476,-0.06821 0.5395,0.668693 0.33745,-0.0026 -0.67025,-0.837675 0.5979,-0.670244 z m -4.49378,0.148311 c 0.17624,0.0072 0.26998,0.06597 0.27698,0.238745 4.6e-4,0.193497 -0.071,0.286655 -0.30127,0.288355 l -0.16588,-0.0186 -0.003,-0.499711 z m -1.93684,0.283704 -1.08779,0.0124 -0.005,0.4439 1.10174,-0.0078 z" /></g><path
         id="text12437"
         style="font-size:12.6817px;font-family:Tahoma;-inkscape-font-specification:'Tahoma, Normal';text-align:center;text-anchor:middle;white-space:pre;shape-inside:url(#rect12439);opacity:1;fill:#ededed;fill-opacity:1;stroke-width:0;stroke-linecap:square;stroke-miterlimit:3;paint-order:markers stroke fill;filter:url(#filter12443)"
         d="m 549.66252,263.97932 v 1.08984 l 2.6237,0.025 -0.0249,8.20374 h 1.22461 v -8.20374 l 2.44909,-0.025 v -1.08984 z m 6.07104,2.64648 v 6.4375 h 0.85546 v -2.56054 h 0.97657 l 2.04297,2.56054 h 1.11132 l -2.29297,-2.80078 c 0.41225,-0.15279 0.73729,-0.38796 0.97657,-0.70508 0.23927,-0.31711 0.35937,-0.71276 0.35937,-1.18554 0,-0.3373 -0.0666,-0.61991 -0.19922,-0.84766 -0.12972,-0.22774 -0.30638,-0.41445 -0.53125,-0.55859 -0.22486,-0.14703 -0.46208,-0.23894 -0.71289,-0.2793 -0.24792,-0.0404 -0.55677,-0.0605 -0.92578,-0.0605 z m 14.14257,0.16407 c -0.43531,0 -0.82798,0.0749 -1.17968,0.22265 -0.35171,0.14495 -0.65554,0.35603 -0.91211,0.63477 -0.26234,0.2871 -0.46319,0.62427 -0.60157,1.01172 -0.13549,0.38744 -0.20312,0.84204 -0.20312,1.36328 0,0.52402 0.0697,0.98841 0.21094,1.39258 0.14126,0.40417 0.34108,0.74134 0.59765,1.01171 0.25658,0.27038 0.56041,0.47475 0.91211,0.61133 0.35459,0.13658 0.74317,0.20508 1.16406,0.20508 0.25658,0 0.46254,-0.0162 0.6211,-0.0469 0.16144,-0.0307 0.33605,-0.0762 0.52344,-0.13477 0.17873,-0.0557 0.33111,-0.11139 0.45507,-0.16992 0.12685,-0.0585 0.26109,-0.12144 0.40235,-0.18555 v -0.98633 h -0.0645 c -0.0663,0.0641 -0.15812,0.14239 -0.27343,0.23438 -0.11532,0.0892 -0.2516,0.17726 -0.41016,0.26367 -0.16432,0.0892 -0.35205,0.16217 -0.5625,0.2207 -0.21045,0.0585 -0.43957,0.0879 -0.6875,0.0879 -0.27099,0 -0.52737,-0.0512 -0.76953,-0.15429 -0.24216,-0.10592 -0.45212,-0.26249 -0.63086,-0.46875 -0.1845,-0.21184 -0.33083,-0.47074 -0.4375,-0.77735 -0.10666,-0.3094 -0.16016,-0.67704 -0.16016,-1.10351 0,-0.40138 0.0495,-0.76149 0.15039,-1.08203 0.1009,-0.32055 0.24221,-0.58699 0.42383,-0.79883 0.1845,-0.21184 0.39949,-0.37176 0.64453,-0.48047 0.24505,-0.10871 0.50543,-0.16406 0.7793,-0.16406 0.25369,0 0.47677,0.0282 0.66992,0.084 0.19315,0.0558 0.37279,0.12648 0.53711,0.21289 0.17009,0.092 0.31345,0.18648 0.43164,0.28125 0.1182,0.0948 0.21411,0.17529 0.28907,0.24219 h 0.0703 v -1 c -0.14126,-0.0753 -0.28657,-0.14376 -0.4336,-0.20508 -0.14414,-0.0641 -0.28545,-0.11639 -0.42382,-0.1582 -0.16144,-0.0474 -0.33708,-0.0865 -0.52735,-0.11719 -0.18738,-0.0307 -0.38925,-0.0469 -0.60547,-0.0469 z m -8.61718,0.0254 v 3.93164 c 0,0.44853 0.0452,0.82533 0.13281,1.13281 0.0876,0.30466 0.23755,0.56708 0.45117,0.78711 0.18897,0.19182 0.41715,0.33681 0.68555,0.43555 0.26839,0.0959 0.58263,0.14453 0.9414,0.14453 0.37521,0 0.69178,-0.0486 0.94922,-0.14453 0.26018,-0.0959 0.48719,-0.24091 0.68164,-0.43555 0.21636,-0.21721 0.36627,-0.4818 0.45117,-0.79492 0.0876,-0.31313 0.13282,-0.68776 0.13282,-1.125 v -3.93164 h -0.81446 v 3.95117 c 0,0.28209 -0.0183,0.5202 -0.0566,0.71484 -0.0356,0.19465 -0.1057,0.37241 -0.20703,0.53321 -0.10955,0.16925 -0.2618,0.29926 -0.45898,0.38671 -0.19719,0.0874 -0.42304,0.13086 -0.67774,0.13086 -0.27113,0 -0.50243,-0.0434 -0.6914,-0.13086 -0.18623,-0.0874 -0.33381,-0.21746 -0.44336,-0.38671 -0.10407,-0.15798 -0.17338,-0.33574 -0.20899,-0.53321 -0.0356,-0.20028 -0.0527,-0.44382 -0.0527,-0.73437 v -3.93164 z m 12.00781,0.15039 v 6.21875 h 0.85547 v -2.48633 l 0.37695,-0.4082 2.34766,2.89453 h 1.11132 l -2.81835,-3.44141 2.6621,-2.77734 h -1.04101 l -2.63867,2.86133 v -2.86133 z m -16.67774,0.39453 h 0.84766 c 0.23928,0 0.44012,0.0162 0.60156,0.0508 0.16144,0.0317 0.30275,0.0892 0.42383,0.16992 0.13838,0.0923 0.24034,0.21235 0.30664,0.35938 0.0663,0.14414 0.0996,0.30871 0.0996,0.49609 0,0.22486 -0.0313,0.42069 -0.0918,0.58789 -0.0576,0.16721 -0.14752,0.31252 -0.27148,0.43359 -0.13838,0.1355 -0.30592,0.22434 -0.50195,0.26758 -0.19604,0.0433 -0.41707,0.0645 -0.66211,0.0645 h -0.75196 z"
         transform="matrix(0.23437913,0,0,0.23437913,15.998195,6.7100799)" /><text
         xml:space="preserve"
         transform="matrix(0.29170312,0,0,0.29170312,-19.281088,-8.6602316)"
         id="text12437-83"
         style="font-size:12.6817px;font-family:Tahoma;-inkscape-font-specification:'Tahoma, Normal';text-align:center;white-space:pre;shape-inside:url(#rect12439-8);display:inline;fill:#ededed;fill-opacity:1;stroke-width:0;stroke-linecap:square;stroke-miterlimit:3;paint-order:markers stroke fill;filter:url(#filter12443-3)"><tspan
           x="549.06457"
           y="273.19881"
           id="tspan15478">U </tspan></text><text
         xml:space="preserve"
         transform="matrix(0.26458333,0,0,0.26458333,-2.1774987,-1.3076422)"
         id="text12437-83-0"
         style="font-size:12.6817px;font-family:Tahoma;-inkscape-font-specification:'Tahoma, Normal';text-align:center;white-space:pre;shape-inside:url(#rect12439-8-1);display:inline;fill:#ededed;fill-opacity:1;stroke-width:0;stroke-linecap:square;stroke-miterlimit:3;paint-order:markers stroke fill;filter:url(#filter12443-3-4)"><tspan
           x="550.91914"
           y="273.19881"
           id="tspan15480">-</tspan></text></g></g></svg>
